<svg version="1.1" id="Layer_1" xmlns="http://www.w3.org/2000/svg" x="0" y="0" viewBox="0 0 1322 111.9" xml:space="preserve"><style>.st1{enable-background:new}.st2{fill:#fff}</style><path id="Layer_2_1_" d="M0 0v111.9h1322V0H0zm44.9 45l23.4-23h232.4l-23.4 23H44.9zm241.4 0l23.4-23h235.4l-23.4 23H286.3zm244.5 0l23.4-23h235.4l-23.4 23H530.8zm244.4 0l23.4-23H1034l-23.4 23H775.2zm474.9 0h-231.4l23.4-23h231.4l-23.4 23z" fill="#272727"/><g id="Layer_4"><g class="st1"><path class="st2" d="M53.1 89.3c-1.8 0-3.3-.9-4.4-2.6-1.1-1.7-1.6-4.1-1.6-7.1s.5-5.4 1.6-7.1c1.1-1.7 2.5-2.6 4.4-2.6s3.3.9 4.4 2.6 1.6 4.1 1.6 7.1-.5 5.4-1.6 7.1c-1.1 1.8-2.6 2.6-4.4 2.6zm0-17.3c-1.1 0-2 .7-2.6 2s-.9 3.2-.9 5.6c0 2.4.3 4.3.9 5.7.6 1.3 1.5 2 2.6 2s2-.7 2.6-2c.6-1.3.9-3.2.9-5.7 0-2.4-.3-4.3-.9-5.6s-1.5-2-2.6-2z"/></g><g class="st1"><path class="st2" d="M273.6 73.1h-.5c-.3 0-.5-.1-.7-.3-.2-.2-.3-.4-.3-.7 0-.2.1-.4.2-.6s.4-.3.7-.4l4.4-1.2c.1 0 .2-.1.3-.1h.3c.2 0 .3.1.4.3.1.2.2.4.2.7v15.8h2.3c.9 0 1.4.1 1.7.2.2.1.4.4.4.8s-.1.6-.3.8-.5.3-.9.3H273c-.4 0-.7-.1-.9-.3s-.3-.4-.3-.8.1-.7.4-.8c.2-.1.8-.2 1.7-.2h2.4V72.5l-2.7.6zM295.1 89.3c-1.8 0-3.3-.9-4.4-2.6-1.1-1.7-1.6-4.1-1.6-7.1s.5-5.4 1.6-7.1c1.1-1.7 2.5-2.6 4.4-2.6s3.3.9 4.4 2.6 1.6 4.1 1.6 7.1-.5 5.4-1.6 7.1c-1.1 1.8-2.6 2.6-4.4 2.6zm0-17.3c-1.1 0-2 .7-2.6 2s-.9 3.2-.9 5.6c0 2.4.3 4.3.9 5.7.6 1.3 1.5 2 2.6 2s2-.7 2.6-2c.6-1.3.9-3.2.9-5.7 0-2.4-.3-4.3-.9-5.6s-1.5-2-2.6-2z"/></g><g class="st1"><path class="st2" d="M511 88.9c-.5 0-.9-.1-1.2-.3s-.4-.5-.4-1c0-.6.9-1.8 2.8-3.6l.4-.4 1.2-1.2c3.4-3.2 5.1-5.5 5.1-7 0-1-.3-1.9-.9-2.5-.6-.6-1.4-1-2.3-1-.6 0-1.2.1-1.8.4s-1 .6-1.4 1c-.1.1-.2.2-.3.4-.4.7-.8 1-1.2 1-.4 0-.6-.1-.7-.3s-.2-.6-.2-1.2c0-.4 0-.6.1-.8.1-.2.2-.3.4-.5.6-.6 1.4-1.1 2.3-1.4s1.9-.5 2.8-.5c1.6 0 3 .5 4.1 1.6 1.1 1 1.6 2.3 1.6 3.9 0 1.9-1.7 4.5-5 7.6-.8.8-1.5 1.4-1.9 1.9l-1.8 1.7h6.7c0-.4.2-.7.3-1 .2-.2.4-.3.8-.3s.6.1.8.3.3.5.3.9v.4l-.1 1.1c0 .3-.1.5-.3.7s-.3.3-.6.3H511zM534.1 89.3c-1.8 0-3.3-.9-4.4-2.6-1.1-1.7-1.6-4.1-1.6-7.1s.5-5.4 1.6-7.1c1.1-1.7 2.5-2.6 4.4-2.6s3.3.9 4.4 2.6 1.6 4.1 1.6 7.1-.5 5.4-1.6 7.1c-1.1 1.8-2.6 2.6-4.4 2.6zm0-17.3c-1.1 0-2 .7-2.6 2s-.9 3.2-.9 5.6c0 2.4.3 4.3.9 5.7.6 1.3 1.5 2 2.6 2s2-.7 2.6-2c.6-1.3.9-3.2.9-5.7 0-2.4-.3-4.3-.9-5.6s-1.5-2-2.6-2z"/></g><g class="st1"><path class="st2" d="M637.4 78.8c1.1.3 2 .9 2.7 1.7s.9 1.8.9 3c0 1.7-.6 3.1-1.8 4.2-1.2 1.1-2.8 1.6-4.7 1.6-1.5 0-2.8-.3-4-.9-1.2-.6-1.7-1.2-1.7-1.9 0-.3.1-.5.3-.7.2-.2.5-.3.8-.3.2 0 .8.2 1.8.7s2 .7 2.9.7c1.2 0 2.1-.3 2.8-1s1.1-1.5 1.1-2.6c0-.9-.3-1.6-.8-2.2-.5-.6-1.2-1-2.1-1.2-.3 0-.6-.1-1-.1-.8 0-1.2-.4-1.2-1s.4-.9 1.2-1c.3 0 .6-.1.8-.1.8-.1 1.4-.4 1.8-.9s.7-1.1.7-1.8c0-.9-.3-1.7-.9-2.3s-1.3-.9-2.2-.9c-.8 0-1.7.3-2.5.8s-1.4.8-1.6.8c-.3 0-.5-.1-.7-.3s-.3-.4-.3-.7c0-.6.5-1.2 1.6-1.8s2.3-.9 3.6-.9c1.5 0 2.8.5 3.8 1.4 1 .9 1.5 2.1 1.5 3.4 0 1-.2 1.9-.7 2.5s-1.1 1.4-2.1 1.8zM653.1 89.3c-1.8 0-3.3-.9-4.4-2.6-1.1-1.7-1.6-4.1-1.6-7.1s.5-5.4 1.6-7.1c1.1-1.7 2.5-2.6 4.4-2.6s3.3.9 4.4 2.6 1.6 4.1 1.6 7.1-.5 5.4-1.6 7.1c-1.1 1.8-2.6 2.6-4.4 2.6zm0-17.3c-1.1 0-2 .7-2.6 2s-.9 3.2-.9 5.6c0 2.4.3 4.3.9 5.7.6 1.3 1.5 2 2.6 2s2-.7 2.6-2c.6-1.3.9-3.2.9-5.7 0-2.4-.3-4.3-.9-5.6s-1.5-2-2.6-2z"/></g><g class="st1"><path class="st2" d="M757.7 88.9c-.5 0-.8-.1-1-.2s-.2-.4-.2-.8.1-.6.3-.8c.2-.2.4-.2.8-.2h1.7v-2.5h-6.8c-.2 0-.4-.1-.6-.2s-.2-.4-.2-.7v-1c0-.4.1-.8.4-1.2 0-.1.1-.1.1-.2l6.2-10.5c.1-.2.2-.4.3-.5s.2-.1.4-.1h.4l1.5.2c.1 0 .2.1.3.2.1.1.1.3.1.5V82h.7c.2 0 .4-.1.5-.3.1-.2.2-.3.4-.3s.4.1.5.2.2.3.2.5v.2c0 .1 0 .1-.1.2l-.1.6c-.1.4-.2.6-.3.7s-.3.2-.6.2h-1.2v2.5h.5c.6 0 1.1.1 1.3.2s.4.4.4.8-.1.6-.3.8-.5.3-.9.3h-4.7zm1.6-6.8v-9.9l-5.6 9.9h5.6zM776.1 89.3c-1.8 0-3.3-.9-4.4-2.6-1.1-1.7-1.6-4.1-1.6-7.1s.5-5.4 1.6-7.1c1.1-1.7 2.5-2.6 4.4-2.6s3.3.9 4.4 2.6 1.6 4.1 1.6 7.1-.5 5.4-1.6 7.1c-1.1 1.8-2.6 2.6-4.4 2.6zm0-17.3c-1.1 0-2 .7-2.6 2s-.9 3.2-.9 5.6c0 2.4.3 4.3.9 5.7.6 1.3 1.5 2 2.6 2s2-.7 2.6-2c.6-1.3.9-3.2.9-5.7 0-2.4-.3-4.3-.9-5.6s-1.5-2-2.6-2z"/></g><g class="st1"><path class="st2" d="M990.8 77.4c.6-.2 1.2-.4 1.8-.5s1.1-.2 1.6-.2c1.7 0 3.1.6 4.3 1.8 1.1 1.2 1.7 2.7 1.7 4.4 0 1.9-.6 3.4-1.9 4.6s-2.9 1.8-4.8 1.8c-1.6 0-3-.2-4.1-.7-1.1-.4-1.7-1-1.7-1.6 0-.3.1-.5.3-.7s.4-.3.7-.3c.1 0 .7.2 1.7.6s2 .6 2.9.6c1.3 0 2.4-.4 3.2-1.2s1.2-1.8 1.2-3-.4-2.2-1.2-3c-.8-.8-1.7-1.2-2.9-1.2-.9 0-1.7.2-2.6.7s-1.4.7-1.5.7c-.3 0-.5-.1-.6-.3s-.2-.6-.2-1.2v-7.3c0-.3.1-.6.3-.7s.5-.2 1-.2h7.4c.5 0 .8.1 1.1.3.2.2.4.5.4.9s-.1.6-.4.8c-.2.2-.6.3-1 .3h-6.6v4.6zM1012.1 89.3c-1.8 0-3.3-.9-4.4-2.6-1.1-1.7-1.6-4.1-1.6-7.1s.5-5.4 1.6-7.1c1.1-1.7 2.5-2.6 4.4-2.6s3.3.9 4.4 2.6 1.6 4.1 1.6 7.1-.5 5.4-1.6 7.1c-1.1 1.8-2.6 2.6-4.4 2.6zm0-17.3c-1.1 0-2 .7-2.6 2s-.9 3.2-.9 5.6c0 2.4.3 4.3.9 5.7.6 1.3 1.5 2 2.6 2s2-.7 2.6-2c.6-1.3.9-3.2.9-5.7 0-2.4-.3-4.3-.9-5.6s-1.5-2-2.6-2z"/></g><g class="st1"><path class="st2" d="M1229.6 79.3c.5-.7 1.1-1.2 1.8-1.5s1.3-.5 2.1-.5c1.5 0 2.9.6 3.9 1.7s1.6 2.6 1.6 4.3c0 1.8-.5 3.2-1.6 4.4s-2.4 1.7-4 1.7c-1.9 0-3.5-.8-4.6-2.3s-1.7-3.6-1.7-6.1c0-3.3.9-6 2.6-8s4-3 6.8-3c.9 0 1.6.1 1.9.2s.5.4.5.8c0 .6-.6.9-1.7 1-.8 0-1.4.1-1.8.1-1.5.3-2.8 1.1-3.8 2.3-1.1 1.2-1.7 2.8-2 4.9zm.3 3.9c0 1.2.3 2.2 1 2.9.6.8 1.5 1.1 2.4 1.1.9 0 1.7-.4 2.3-1.1s.9-1.6.9-2.8c0-1.2-.3-2.2-.9-2.9s-1.4-1.1-2.4-1.1c-.9 0-1.7.4-2.4 1.1s-.9 1.6-.9 2.8zM1251.1 89.3c-1.8 0-3.3-.9-4.4-2.6-1.1-1.7-1.6-4.1-1.6-7.1s.5-5.4 1.6-7.1c1.1-1.7 2.5-2.6 4.4-2.6s3.3.9 4.4 2.6 1.6 4.1 1.6 7.1-.5 5.4-1.6 7.1c-1.1 1.8-2.6 2.6-4.4 2.6zm0-17.3c-1.1 0-2 .7-2.6 2s-.9 3.2-.9 5.6c0 2.4.3 4.3.9 5.7.6 1.3 1.5 2 2.6 2s2-.7 2.6-2c.6-1.3.9-3.2.9-5.7 0-2.4-.3-4.3-.9-5.6s-1.5-2-2.6-2z"/></g></g></svg>
