<svg version="1.0" id="play" xmlns="http://www.w3.org/2000/svg" x="0" y="0" viewBox="0 0 139 190" xml:space="preserve"><path fill-rule="evenodd" clip-rule="evenodd" fill="#FFF" d="M65.044 4.956h70v181.001h-70l-60-93.081 60-87.92zm20.999 66.501c12.703 0 23.001 10.297 23.001 23 0 12.702-10.298 22.998-23.001 22.998-12.701 0-23-10.297-23-22.998 0-12.703 10.299-23 23-23z"/><path fill-rule="evenodd" clip-rule="evenodd" fill="#FFF" d="M86.043 75.456c-10.493 0-18.999 8.507-18.999 19.002 0 10.492 8.506 19 18.999 19 10.494 0 19-8.507 19-19 0-10.495-8.506-19.002-19-19.002zm6.68 19.678c-.472.333-8.177 5.679-8.735 6.05-.409.273-.945-.027-.945-.647v-12.1c0-.562.485-.981.964-.651.384.264 8.061 5.583 8.716 6.038.431.298.423 1.01 0 1.31z"/></svg>