<svg version="1.0" xmlns="http://www.w3.org/2000/svg" viewBox="0 0 632.002 791"><g id="Layer_1"><path fill="#272727" d="M0-.496h632.002v791.992c-2.162-.03-4.323-.086-6.485-.086-206.119-.004-412.237-.004-618.356-.004H.09v-7.615c0-259.1 0-518.2-.004-777.3C.086 4.161.03 1.833 0-.496zm571.295 451.042c4.09 4.658 7.503 8.922 11.328 12.779 2.903 2.928 8.178 2.614 10.88-.218 5.377-5.637 10.773-11.259 16.034-17.004 5.263-5.748 8.952-11.943 8.98-20.378.023-6.682 1.789-13.426 3.324-20.015 1.506-6.466 3.505-12.837 5.644-19.129 2.11-6.209 1.509-12.004-1.077-17.92-1.015-2.324-1.498-5.091-1.434-7.637.198-7.963 2.221-16.152.966-23.834-7.958-48.713-16.406-97.349-25.137-145.93-3.12-17.362-12.552-29.765-30.755-34.088-7.789-1.85-13.966-6.505-19.483-12.394-5.996-6.401-12.651-12.187-19.073-18.183-2.33-2.175-1.888-7.321 1.099-8.136 6.087-1.661 7.168-6.076 7.465-11.441.108-1.954.783-4.406 2.112-5.673 6.446-6.144 8.225-13.604 4.948-21.415-6.478-15.441-13.758-30.545-20.718-45.783-.134-.294-.357-.675-.621-.762-4.771-1.563-4.167-5.686-4.686-9.412-.849-6.086-8.506-9.172-13.519-5.649-10.459 7.35-20.952 14.652-31.434 21.968-12.188 8.507-21.979 18.809-25.387 33.895-.43 1.904-.856 3.809-1.284 5.713-.32-.422-.64-.845-.96-1.267-5.243 2.569-11.061 4.384-15.614 7.858-10.521 8.027-22.267 13.095-34.762 16.835-1.904.57-3.914 1.101-5.568 2.139-25.499 16.01-48.193 34.954-63.188 61.7-5.1 9.096-7.991 18.967-8.812 29.403-.368 4.681 1.351 8.197 5.092 11.221 8.855 7.155 19.249 10.423 30.118 12.384 19.616 3.539 39.28 6.816 58.942 10.09 3.656.609 5.911 2.153 6.961 5.917.59 2.117 1.905 4.801 3.665 5.674 4.668 2.317 5.78 6.454 7.114 10.74 1.482 4.762 3.29 9.427 4.668 14.216.46 1.597.674 3.84-.102 5.118-3.473 5.727-4.018 11.956-3.615 18.316.566 8.923-1.484 17.01-6.024 24.736-5.249 8.931-7.119 18.701-7.238 29.156-.096 8.379-1.791 16.783-3.259 25.09-1.184 6.697-3.351 13.217-4.608 19.905-1.627 8.655-5.216 17.412.683 26.018.87 1.269.367 3.585.258 5.402-.698 11.575 1.201 22.776 3.862 34.024 3.13 13.233 5.76 26.625 7.732 40.076 1.322 9.017.832 18.284 1.694 27.388.714 7.542 1.464 15.232 3.593 22.444 1.956 6.625 3.896 12.832 2.504 19.883-.992 5.022-1.307 10.274-1.181 15.405.469 19.108 1.687 38.207 1.801 57.314.162 27.122 5.734 53.05 15.505 78.188 1.409 3.626 1.464 6.684-.218 10.403-4.953 10.955-8.853 22.305-8.25 34.607.454 9.25 5.104 16.39 12.536 17.818 5.787 1.112 11.87 1.138 17.798.936 5.539-.189 9.495-3.336 11.996-8.441 3.12-6.37 6.531-12.598 10.042-19.321.501 1.346.793 2.101 1.065 2.864 8.237 23.041 28.871 31.054 50.524 19.81 7.676-3.986 10.218-7.05 8.157-17.972-1.201-6.365-4.374-12.507-7.453-18.331-3.671-6.944-4.943-13.968-3.724-21.66 5.232-33.011 10.439-66.026 15.52-99.061 1.787-11.62 5.013-23.161 2.434-35.119-.765-3.547-2.067-7.347-1.486-10.751 2.201-12.884-3.8-26.407 3.121-38.892.497-.896.183-2.303.085-3.458-2.265-26.531 5.415-51.721 10.42-78.159zm-442.918 217.2c.738 6.897 1.051 12.986 2.111 18.941 1.425 8.007 3.697 15.866 5.042 23.884.511 3.049.105 6.608-1.003 9.506-3.151 8.251-4.773 16.574-3.459 25.378.169 1.136.318 2.336.141 3.452-1.361 8.57 1.5 15.963 5.926 23.086 2.316 3.727 5.448 6.018 9.634 6.214 9.44.442 18.899.607 28.351.638 3.956.013 7.915-.88 11.872-.876 12.743.013 25.494.583 38.227.293 9.123-.208 13.763-5.966 15.185-12.46.603-2.751 1.761-5.511 1.712-8.249-.162-8.906.34-18.055-1.602-26.613-1.213-5.346-2.647-10.251-1.971-15.812 1.519-12.488 6.5-23.826 11.154-35.283.371-.914 1.603-1.574 2.561-2.137 13.453-7.904 23.463-27.995 20.958-43.659-2.149-13.436-5.069-26.754-7.856-40.08-.865-4.138-2.686-7.857.958-11.919 1.421-1.584.772-5.066.968-7.69.097-1.291-.535-2.895.026-3.853 5.051-8.635 3.67-17.639 1.926-26.724-.236-1.231-.454-2.859.132-3.791 3.603-5.727 2.919-11.651 1.669-17.846-.599-2.97-.547-6.273.069-9.246 1.578-7.613 4.179-15.042 5.366-22.7 1.475-9.514 1.204-19.325 3.001-28.757 3.384-17.756 12.502-33.431 19.601-49.825.392-.904 1.032-1.697 1.494-2.575 4.632-8.789 9.604-17.426 13.684-26.465 1.466-3.249 2.817-5.813 6.069-7.221 4.602-1.992 6.776-5.499 6.924-10.534.169-5.755.508-11.514 1.016-17.249.845-9.535 3.288-19.163 2.556-28.556-1.677-21.494-4.876-42.869-7.417-64.297-.151-1.274.157-2.599.059-3.885-.203-2.662-.263-5.379-.884-7.952-.727-3.011-2.336-5.822-2.96-8.844-3.817-18.503-7.26-37.084-11.251-55.548-1.983-9.174-2.395-19.047-11.821-25.164-7.582-4.921-13.953-11.756-21.652-16.439-10.854-6.602-22.984-11.338-29.757-23.051-1.199-2.073-2.828-5.464-1.979-6.819 1.617-2.582 2.681-6.529 7.993-5.525 7.206 1.362 11.237-3.244 10.54-10.669-.279-2.978-.697-5.955-1.267-8.891-1.483-7.628-2.91-15.275-4.712-22.831-.99-4.151-2.921-8.071-4.028-12.202-3.797-14.171-12.319-24.023-26.688-27.436-7.988-1.898-16.453-2.952-24.635-2.632-17.791.696-31.007 9.046-37.67 26.191-1.502 3.865-2.428 7.95-3.79 11.874-2.929 8.435-6.493 16.528-16.355 18.752-4.643 1.047-7.455 3.605-9.855 7.543-3.718 6.103-8.05 10.95-16.229 12.198-8.7 1.329-17.615 3.978-21.954 13.056-9.298-2.653-14.49-1.682-18.979 2.421-3.752 3.43-7.723 6.849-12.146 9.268-9.652 5.279-19.751 9.223-28.145 17.176-8.075 7.651-13.952 15.822-16.556 26.425-1.725 7.022-.391 13.608 4.182 19.262 3.131 3.871 6.757 7.338 9.953 11.16 8.572 10.248 19.52 17.035 31.963 21.239 4.216 1.425 9.113 1.336 13.667 1.148 7.882-.326 15.738-1.27 24.382-2.022 4.119 30.056 7.845 59.502 4.671 89.614-3.436 0-6.119-.265-8.733.05-7.426.897-9.917 3.337-10.608 10.76-.399 4.289-.251 8.642-.158 12.963.189 8.806 1.105 17.646.572 26.402-.379 6.237.98 10.963 5.625 15.03 1.502 1.316 3.092 3.238 3.401 5.09 1.354 8.14 2.357 16.345 3.271 24.55.396 3.553 1.385 6.38 4.905 8.014.892.414 1.764 1.939 1.791 2.976.148 5.816.508 11.688-.087 17.449-1.225 11.843-.497 23.406 2.215 35.024 1.535 6.574 1.392 13.521 2.497 20.219 3.08 18.664 10.008 36.798 6.81 56.315-.625 3.817 1.658 8.022 1.741 12.065.133 6.434.205 12.998-.899 19.296-1.503 8.58-1.353 16.649 2.667 24.514.442.865.003 2.234-.166 3.349-.821 5.414-1.691 10.821-2.542 16.231-1.84 11.693.223 23.926-6.162 35.021-4.07 7.073-1.768 12.624 5.515 16.496 3.198 1.7 6.721 2.784 9.223 3.794z"/><path fill="#FFF" d="M571.295 450.546c-5.005 26.438-12.685 51.628-10.42 78.16.099 1.156.412 2.562-.085 3.458-6.921 12.485-.92 26.007-3.121 38.892-.582 3.404.721 7.204 1.486 10.751 2.579 11.958-.647 23.499-2.434 35.119-5.081 33.034-10.288 66.05-15.52 99.061-1.219 7.692.053 14.716 3.724 21.66 3.078 5.823 6.252 11.965 7.453 18.331 2.06 10.922-.481 13.986-8.157 17.972-21.653 11.244-42.287 3.231-50.524-19.81-.273-.762-.564-1.518-1.065-2.864-3.512 6.723-6.922 12.951-10.042 19.321-2.5 5.104-6.456 8.252-11.996 8.441-5.927.202-12.011.177-17.798-.936-7.432-1.429-12.082-8.569-12.536-17.818-.603-12.302 3.296-23.652 8.25-34.607 1.682-3.719 1.627-6.777.218-10.403-9.771-25.138-15.343-51.066-15.505-78.188-.114-19.107-1.332-38.205-1.801-57.314-.126-5.131.189-10.382 1.181-15.405 1.392-7.051-.548-13.258-2.504-19.883-2.129-7.212-2.879-14.902-3.593-22.444-.861-9.104-.372-18.371-1.694-27.388-1.972-13.451-4.602-26.844-7.732-40.076-2.661-11.248-4.559-22.45-3.862-34.024.11-1.817.612-4.133-.258-5.402-5.899-8.606-2.309-17.363-.683-26.018 1.257-6.688 3.425-13.208 4.608-19.905 1.468-8.307 3.164-16.711 3.259-25.09.119-10.456 1.989-20.225 7.238-29.156 4.541-7.726 6.59-15.813 6.024-24.736-.403-6.359.142-12.589 3.615-18.316.776-1.279.561-3.521.102-5.118-1.378-4.79-3.186-9.454-4.668-14.216-1.334-4.286-2.446-8.423-7.114-10.74-1.76-.873-3.075-3.557-3.665-5.674-1.05-3.765-3.305-5.309-6.961-5.917-19.663-3.274-39.326-6.551-58.942-10.09-10.869-1.961-21.263-5.229-30.118-12.384-3.742-3.023-5.461-6.54-5.092-11.221.821-10.436 3.712-20.307 8.812-29.403 14.995-26.745 37.689-45.69 63.188-61.7 1.654-1.038 3.664-1.569 5.568-2.139 12.495-3.741 24.242-8.808 34.762-16.835 4.553-3.474 10.371-5.289 15.614-7.858.32.422.64.845.96 1.267.428-1.904.854-3.809 1.284-5.713 3.408-15.087 13.199-25.388 25.387-33.895 10.482-7.317 20.975-14.618 31.434-21.968 5.013-3.523 12.67-.436 13.519 5.649.52 3.726-.084 7.849 4.686 9.412.264.087.487.468.621.762 6.96 15.238 14.24 30.342 20.718 45.783 3.277 7.811 1.498 15.271-4.948 21.415-1.329 1.267-2.005 3.719-2.112 5.673-.296 5.365-1.378 9.779-7.465 11.441-2.987.815-3.429 5.961-1.099 8.136 6.422 5.996 13.077 11.783 19.073 18.183 5.517 5.889 11.693 10.544 19.483 12.394 18.203 4.322 27.635 16.725 30.755 34.088 8.73 48.582 17.179 97.217 25.137 145.93 1.255 7.682-.768 15.872-.966 23.834-.063 2.546.419 5.313 1.434 7.637 2.585 5.916 3.187 11.711 1.077 17.92-2.138 6.292-4.138 12.663-5.644 19.129-1.535 6.59-3.302 13.334-3.324 20.015-.029 8.436-3.717 14.63-8.98 20.378-5.26 5.745-10.656 11.367-16.034 17.004-2.702 2.832-7.976 3.146-10.88.218-3.824-3.857-7.238-8.122-11.328-12.78zM449.512 89.845c-.494-4.763-3.214-4.898-6.438-2.688-14.731 10.1-30.156 18.74-47.592 23.291-24.289 15.401-46.418 33.23-60.412 58.938-4.337 7.967-5.914 17.466-8.515 26.335-.991 3.38.657 5.926 3.47 8.081 9.034 6.924 19.634 9.545 30.497 11.46 19.465 3.431 38.961 6.69 58.403 10.247 2.145.392 4.937 1.784 5.842 3.534 2.272 4.39 3.362 9.354 8.82 11.36 1.025.377 1.616 2.386 2.084 3.752 2.588 7.548 5.261 15.076 7.478 22.735.612 2.114.463 5.029-.556 6.919-2.545 4.717-3.733 9.546-3.313 14.822.857 10.789-1.599 20.697-7.23 29.99-4.593 7.581-5.909 15.984-5.982 24.879-.061 7.571-1.22 15.205-2.606 22.678-2.272 12.246-5.251 24.359-7.612 36.59-.429 2.222.554 4.769 1.103 7.115.583 2.492 2.025 4.916 2.052 7.381.123 11.304.133 22.484 3.088 33.634 5.454 20.577 9.821 41.384 9.885 62.876.039 13.153.792 26.231 6.78 38.451 1.041 2.126.243 5.21.114 7.843-.578 11.789-1.851 23.583-1.699 35.36.244 18.946 1.378 37.882 2.221 56.818.155 3.47.337 7.015 1.154 10.367 4.316 17.711 6.074 36.113 14.279 52.789 1.933 3.929.944 7.665-.545 11.882-3.348 9.48-6.676 19.216-7.955 29.114-1.583 12.259 3.779 17.082 16.038 17.161 1.83.012 3.661-.034 5.491-.014 4.387.047 7.612-1.641 9.601-5.762 4.264-8.832 8.645-17.608 13.066-26.362 3.798-7.52 6.784-15.185 5.599-23.877-.132-.967.315-2.012.493-3.021 1.132 4.602 1.206 9.114 1.112 13.622-.104 4.983-.811 9.993-.478 14.939 1.688 25.026 23.343 37.171 44.811 25.465 3.943-2.15 6.108-5.069 4.957-9.173-1.683-6.002-3.659-12.049-6.498-17.568-4.159-8.086-6.698-16.212-5.248-25.38 5.221-33.012 10.414-66.029 15.511-99.06 1.844-11.951 4.876-23.778 2.516-36.124-1.071-5.606-.701-11.48-1.088-17.226-.32-4.752-.921-9.488-1.146-14.243-.12-2.54-.373-5.396.591-7.603 2.662-6.096 3.633-12.28 3.454-18.902-.215-7.967-.705-16.107.582-23.898 2.814-17.048 6.835-33.892 10.06-50.877 2.876-15.148 7.237-30.243 3.969-45.901-2.18-10.445-1.949-20.736.144-31.186 1.066-5.324 1.571-10.964 1.103-16.355-1.361-15.696-5.108-30.541-18.828-41.529 4.039-12.116 8.189-24.566 12.34-37.017.378 4.294.004 8.412-.786 12.449-1.685 8.603-.12 15.789 7.697 20.964 1.31.867 2.353 3.236 2.308 4.878-.335 12.378 2.54 24.085 6.826 35.543 3.493 9.34 6.94 18.699 10.531 28.002 2.053 5.32 1.378 10.277-.749 15.461-1.873 4.565-3.45 9.373-4.272 14.224-1.909 11.251-1.527 22.492 2.246 33.811-2.894 1.33-5.632 2.454-8.225 3.848-1.041.559-2.422 1.693-2.447 2.598-.025.914 1.322 2.519 2.27 2.688 3.321.593 4.506 2.614 5.214 5.616.548 2.323 2.056 4.289 4.539 1.748 5.801-5.938 11.483-11.995 17.133-18.078 3.602-3.878 5.416-8.275 5.849-13.832.625-8.032 2.394-16.012 4.147-23.909 1.293-5.827 3.19-11.538 5.096-17.207 1.751-5.207 1.218-9.992-.995-14.981-1.221-2.752-1.834-6.03-1.762-9.048.184-7.634 1.956-15.359 1.205-22.858-1.621-16.2-4.011-32.354-6.845-48.393-3.934-22.257-8.607-44.383-12.879-66.582-2.261-11.744-3.928-23.618-6.621-35.258-2.906-12.559-10.385-21.419-23.386-24.689-11.082-2.787-19.649-9.163-27.032-17.749-5.678-6.604-11.282-13.573-20.203-16.321.41-3.081.737-5.881 1.165-8.666.448-2.915.994-5.816 1.498-8.731 7.055 1.445 7.695.544 8.211-5.977.248-3.138 1.83-6.789 4.016-9.027 4.582-4.692 5.223-9.83 3.552-15.587-1.201-4.138-2.538-8.295-4.376-12.176-3.913-8.261-8.082-16.407-12.377-24.477-1.655-3.109-1.837-7.572-6.862-8.159-.759-.089-1.474-2.451-1.807-3.857-.496-2.095-.59-4.281-.934-6.416-.619-3.835-2.53-4.448-5.684-2.142-6.302 4.609-12.713 9.068-19.07 13.602-6.762 4.823-13.834 9.276-20.193 14.583-9.06 7.562-14.276 17.589-14.997 29.415-.268 4.4-1.823 6.749-5.968 8.028zm131.476 348.816c-.055-.94-.019-1.602-.143-2.232-3.079-15.723-2.397-31.057 4.373-45.87.925-2.024 1.765-4.73 1.183-6.686-2.389-8.027-5.343-15.885-8.089-23.806-1.438 4.033-1.719 7.825-2.536 11.498-2.161 9.72-2.501 19.418-.539 29.203 2.159 10.764 1.734 21.49-.637 32.182-.648 2.922-1.055 5.897-1.7 9.578 3.34-1.595 5.698-2.724 8.088-3.867zM567.476 321.12c2.74-7.276-3.698-9.259-6.734-13.308-1.675 3.22-1.675 3.22 6.734 13.308zM128.377 667.746c-2.502-1.011-6.024-2.095-9.221-3.794-7.284-3.872-9.586-9.423-5.515-16.496 6.385-11.096 4.322-23.329 6.162-35.021.851-5.41 1.72-10.816 2.542-16.231.169-1.114.608-2.484.166-3.349-4.021-7.865-4.171-15.934-2.667-24.514 1.104-6.298 1.032-12.862.899-19.296-.084-4.044-2.367-8.248-1.741-12.065 3.198-19.517-3.731-37.651-6.81-56.315-1.105-6.698-.962-13.645-2.497-20.219-2.712-11.618-3.44-23.181-2.215-35.024.596-5.761.236-11.633.087-17.449-.026-1.037-.899-2.562-1.791-2.976-3.521-1.634-4.51-4.461-4.905-8.014-.914-8.205-1.917-16.41-3.271-24.55-.308-1.852-1.898-3.774-3.401-5.09-4.644-4.068-6.004-8.793-5.625-15.03.532-8.756-.383-17.596-.572-26.402-.093-4.32-.241-8.673.158-12.963.691-7.423 3.183-9.863 10.608-10.76 2.613-.316 5.297-.05 8.733-.05 3.174-30.112-.551-59.557-4.671-89.614-8.645.752-16.501 1.696-24.382 2.022-4.553.188-9.45.277-13.667-1.148-12.443-4.205-23.392-10.992-31.963-21.239-3.197-3.822-6.822-7.289-9.953-11.16-4.573-5.654-5.907-12.24-4.182-19.262 2.604-10.603 8.481-18.774 16.556-26.425 8.394-7.953 18.493-11.897 28.145-17.176 4.423-2.419 8.394-5.838 12.146-9.268 4.488-4.103 9.681-5.075 18.979-2.421 4.339-9.078 13.254-11.728 21.954-13.056 8.178-1.249 12.51-6.096 16.229-12.198 2.399-3.938 5.212-6.496 9.855-7.543 9.861-2.224 13.426-10.317 16.355-18.752 1.363-3.924 2.288-8.009 3.79-11.874 6.663-17.144 19.879-25.495 37.67-26.191 8.181-.32 16.646.735 24.635 2.632 14.369 3.413 22.891 13.265 26.688 27.436 1.107 4.131 3.038 8.051 4.028 12.202 1.801 7.555 3.228 15.202 4.712 22.831.571 2.936.988 5.913 1.267 8.891.697 7.425-3.335 12.031-10.54 10.669-5.312-1.004-6.376 2.943-7.993 5.525-.848 1.355.78 4.746 1.979 6.819 6.773 11.713 18.903 16.449 29.757 23.051 7.7 4.683 14.07 11.518 21.652 16.439 9.426 6.118 9.838 15.99 11.821 25.164 3.99 18.464 7.434 37.046 11.251 55.548.623 3.022 2.233 5.832 2.96 8.844.621 2.573.682 5.29.884 7.952.098 1.286-.21 2.611-.059 3.885 2.541 21.428 5.74 42.803 7.417 64.297.733 9.393-1.711 19.021-2.556 28.556-.508 5.735-.847 11.494-1.016 17.249-.148 5.035-2.322 8.541-6.924 10.534-3.252 1.408-4.603 3.972-6.069 7.221-4.08 9.039-9.052 17.676-13.684 26.465-.462.878-1.103 1.671-1.494 2.575-7.1 16.394-16.218 32.069-19.601 49.825-1.798 9.432-1.526 19.243-3.001 28.757-1.187 7.658-3.788 15.088-5.366 22.7-.616 2.974-.669 6.277-.069 9.246 1.25 6.196 1.934 12.119-1.669 17.846-.587.932-.368 2.56-.132 3.791 1.744 9.086 3.125 18.089-1.926 26.724-.56.958.071 2.562-.026 3.853-.196 2.625.452 6.106-.968 7.69-3.644 4.062-1.823 7.781-.958 11.919 2.787 13.326 5.706 26.644 7.856 40.08 2.506 15.664-7.504 35.756-20.958 43.659-.958.563-2.19 1.224-2.561 2.137-4.654 11.457-9.635 22.796-11.154 35.283-.676 5.56.758 10.465 1.971 15.812 1.942 8.558 1.441 17.707 1.602 26.613.05 2.738-1.109 5.498-1.712 8.249-1.423 6.495-6.062 12.253-15.185 12.46-12.733.29-25.483-.28-38.227-.293-3.957-.004-7.916.889-11.872.876-9.452-.031-18.911-.197-28.351-.638-4.186-.196-7.319-2.487-9.634-6.214-4.426-7.123-7.287-14.516-5.926-23.086.177-1.117.029-2.317-.141-3.452-1.314-8.804.308-17.128 3.459-25.378 1.107-2.899 1.514-6.457 1.003-9.506-1.345-8.017-3.617-15.877-5.042-23.884-1.063-5.955-1.375-12.043-2.113-18.941zm117.64 6.356c13.562-5.726 23.63-23.114 21.368-40.034-1.187-8.882-3.044-17.674-4.603-26.506-1.751-9.923-6.672-19.352-4.479-30.063.954.432 1.942.88 3.042 1.378 0-3.566-1.164-7.372.208-9.653 5.087-8.462 3.267-16.995 1.77-25.705-.295-1.718-.786-4.144.082-5.194 4.108-4.965 2.588-10.232 1.936-15.709-.474-3.973-.319-8.176.435-12.107 1.244-6.484 3.675-12.753 4.751-19.254 1.99-12.02 3.3-24.151 5.005-36.219 2.32-16.418 11.716-30.08 17.93-44.96 3.915-9.375 9.615-18.001 14.451-26.996.696-1.294 1.659-2.895 1.424-4.154-.64-3.425 1.091-5.075 3.798-6.069 8.54-3.136 9.544-9.832 8.708-17.619-.298-2.778-.588-5.769.106-8.403 2.631-9.979 4.509-19.934 2.938-30.329-1.959-12.968-3.79-25.959-5.455-38.968-1.115-8.711-1.924-17.464-2.679-26.214-.155-1.802 1.128-3.814.737-5.494-1.973-8.49-4.552-16.842-6.406-25.355-2.71-12.443-4.902-24.998-7.495-37.467-.705-3.389-3.135-6.725-2.89-9.941.501-6.577-2.566-10.638-7.217-14.307-6.997-5.519-13.384-12.045-20.991-16.501-11.97-7.011-24.894-12.547-32.298-25.181-2.044-3.488-3.471-7.48-4.334-11.426-.235-1.076 2.648-2.792 4.019-4.288.423-.461.87-1.199.812-1.758-.655-6.251 3.048-5.255 6.891-4.299 1.603.398 3.457.988 4.888.528 1.391-.447 3.525-2.304 3.38-3.237-1.656-10.631-3.545-21.232-5.692-31.776-.749-3.677-2.672-7.105-3.552-10.768-3.249-13.522-11.182-22.634-24.904-25.569-6.757-1.445-13.85-2.029-20.766-1.874-17.546.394-29.274 9.875-34.246 26.716-2.001 6.776-4.113 13.52-6.213 20.267-.134.43-.521.883-.914 1.114-4.859 2.85-9.5 6.302-14.702 8.254-3.403 1.277-5.593 2.91-7.516 5.808-4.711 7.099-9.209 14.672-19.624 13.859-1.254-.098-2.75.317-3.828.987-4.487 2.79-10.913 2.497-13.343 8.613-1.648 4.147-4.892 5.332-9.021 3.693-6.595-2.617-8.362-2.177-12.936 2.988-.74.835-1.771 1.454-2.752 2.027-5.264 3.075-10.516 6.175-15.853 9.12-2.855 1.575-6.132 2.488-8.757 4.351-4.283 3.039-7.991 6.892-12.295 9.895-7.794 5.438-12.444 13.074-14.292 21.956-.899 4.319-.402 10.325 2.042 13.696 9.225 12.723 20.264 23.708 35.032 30.326 6.892 3.088 13.635 3.712 20.843 1.64 2.33-.67 4.9-.525 7.364-.709 4.765-.357 9.53-.842 14.3-.912 1.208-.018 3.376 1.181 3.514 2.067 1.859 11.976 3.746 23.963 4.985 36.014.95 9.241 1.073 18.572 1.414 27.869.218 5.957.218 11.924.217 17.887-.002 7.473-3.066 15.165 2.025 22.284-6.048.037-5.773-.398-10.791-3.573-2.101-1.329-5.8-.937-8.476-.219-1.396.374-2.799 3.061-3.053 4.865-.506 3.593-.27 7.299-.253 10.957.048 10.277-.125 20.567.403 30.82.131 2.542 2.062 5.61 4.107 7.293 3.329 2.739 5.254 5.36 5.471 9.98.339 7.212 2.3 14.348 2.629 21.559.221 4.85 2.419 6.208 7.014 6.027 0 4.497-.057 8.633.01 12.768.24 14.834-2.266 29.683 1.492 44.507 2.307 9.1 3.038 18.591 4.664 27.874 1.775 10.136 3.379 20.327 5.772 30.323 2.444 10.205-2.573 20.263.977 30.811 2.211 6.57.698 14.781-.532 22.02-1.34 7.89-1.382 15.138 2.439 22.345.819 1.546.408 3.916.124 5.842-.751 5.075-1.928 10.09-2.605 15.174-1.781 13.385.047 27.408-7.706 39.716-1.89 3 .543 5.561 3.179 6.859 3.553 1.75 7.366 2.984 11.102 4.345 3.913 1.425 5.152 4.369 4.201 8.117-.888 3.502-1.491 7.261-1.205 10.826.315 3.922 1.936 7.72 2.727 11.625 2.413 11.912 7.239 23.876-.352 35.698.147 10.385-1.023 21.008.797 31.091 1.978 10.957 6.381 13.113 17.587 13.384 1.996.048 3.993.031 5.99.055 12.304.148 24.51-1.826 36.948-.217 8.452 1.094 17.24-.487 25.881-.745 5.336-.16 8.158-4.13 9.127-8.024 1.66-6.675 2.219-13.74 2.298-20.652.051-4.448-1.506-8.933-2.491-13.369-.574-2.588-2.384-5.26-2.011-7.639 1.593-10.168 3.771-20.245 5.797-30.343.254-1.268.779-2.506 1.332-3.686 2.021-4.328 4.112-8.622 7.045-14.733z"/><path fill="#272727" d="M378.571 173.827c8.396 2.437 15.411-.39 22.503-3.499 4.364-1.913 9.05-4.454 13.55-4.375 7.026.123 11.012-2.724 14.552-8.271 5.608-8.785 8.248-9.158 16.983-3.87.853.516 1.733.989 2.575 1.523 3.57 2.267 7.015 2.038 9.988-.913 4.003-3.973 7.697-8.26 11.725-12.205 4.287-4.198 5.433-8.507 2.404-14.094-2.768-5.105-2.87-11.736-9.197-14.751-.899-.428-1.072-2.565-1.399-3.953-.307-1.302-.375-2.66-.563-4.109-4.719 2.763-8.824 5.167-11.645 6.819 0 2.951.849 6.554-.129 7.149-11.552 7.02-22.12 17.328-37.687 12.47-3.484-1.087-6.283-.037-8.1 3.762-1.251 2.616-3.331 5.085-5.605 6.919-10.202 8.231-13.8 20.454-19.955 31.398zm115.098 387.971c-7.68 9.45-8.225 16.594-3.226 25.354.963 1.688 1.749 3.699 1.865 5.607.341 5.621.431 11.266.387 16.899-.064 8.308-.707 16.63-.342 24.913.178 4.026 2.083 7.976 3.206 11.961 1.574-.745 1.942-1.14 1.966-1.554 1.313-23.404 3.54-46.819.35-70.22-.558-4.091-2.548-7.987-4.206-12.96zM580.988 438.661c-2.39 1.143-4.748 2.272-8.087 3.869.645-3.68 1.052-6.656 1.7-9.578 2.371-10.692 2.797-21.418.637-32.182-1.963-9.785-1.623-19.484.539-29.203.817-3.673 1.098-7.465 2.536-11.498 2.746 7.92 5.7 15.779 8.089 23.806.582 1.955-.258 4.662-1.183 6.686-6.77 14.813-7.452 30.146-4.373 45.87.123.629.087 1.29.142 2.23zM567.476 321.12c-8.409-10.088-8.409-10.088-6.734-13.308 3.036 4.049 9.474 6.033 6.734 13.308z"/><path fill="#FFF" d="M378.571 173.827c6.154-10.944 9.753-23.167 19.953-31.398 2.274-1.835 4.353-4.303 5.605-6.919 1.817-3.799 4.617-4.849 8.1-3.762 15.567 4.859 26.135-5.45 37.687-12.47.978-.595.129-4.198.129-7.149 2.822-1.652 6.926-4.055 11.645-6.819.188 1.449.256 2.808.563 4.109.328 1.389.501 3.525 1.399 3.953 6.327 3.015 6.429 9.646 9.197 14.751 3.029 5.587 1.883 9.895-2.404 14.094-4.029 3.946-7.722 8.233-11.725 12.205-2.973 2.95-6.418 3.18-9.988.913-.841-.534-1.722-1.007-2.575-1.523-8.735-5.289-11.375-4.916-16.983 3.87-3.54 5.547-7.527 8.394-14.552 8.271-4.5-.079-9.187 2.462-13.55 4.375-7.09 3.109-14.105 5.935-22.501 3.499zm80.413-56.488c-2.583 2.919-4.462 6.013-7.178 7.901-4.888 3.398-10.193 6.234-15.478 9.012-7.341 3.86-14.918 6.546-23.406 3.554-1.027-.362-2.957.268-3.762 1.112-4.227 4.435-8.573 8.83-12.203 13.738-3.435 4.646-6.035 9.909-9.002 14.901.417.402.835.804 1.252 1.206 3.158-1.286 6.254-2.766 9.489-3.815 5.625-1.824 11.249-3.976 17.044-4.831 3.505-.517 5.703-1.476 7.646-4.368 8.782-13.071 13.15-14.128 26.514-6.398 2.611 1.51 4.637 1.556 6.595-.61 3.779-4.182 7.52-8.4 11.165-12.698.547-.645.92-1.973.638-2.7-2.387-6.15-2.708-13.673-9.314-16.004zM493.669 561.798c1.658 4.974 3.649 8.869 4.206 12.961 3.189 23.401.963 46.816-.35 70.22-.023.414-.392.81-1.966 1.554-1.123-3.985-3.028-7.935-3.206-11.961-.365-8.283.278-16.606.342-24.913.043-5.634-.046-11.279-.387-16.899-.116-1.908-.902-3.919-1.865-5.607-5-8.761-4.454-15.905 3.226-25.355zM179.594 730.24c7.369-3.233 7.436-7.915 1.61-13.358.54-7.347 1.092-13.88 1.481-20.422.412-6.928.36-13.905 1.225-20.77.201-1.591 3.146-3.423 5.139-3.935.905-.232 3.222 2.262 3.779 3.901 3.809 11.195 2.745 22.827 2.444 34.346-.079 3.023-1.174 6.041-1.969 9.017-.464 1.738-2.22 3.747-1.745 5.017 2.801 7.485-2.449 13.76-2.637 20.718-.098 3.644.123 7.298-.025 10.938-.052 1.282-.692 2.577-1.262 3.771-.111.232-1.617.169-1.669-.003-.341-1.124-.714-2.339-.609-3.481.834-9.047 1.364-18-5.762-25.739zm9.61-43.592c-.321-.008-.642-.016-.964-.023v27.895c.321.014.642.028.964.041v-27.913zM269.016 366.683c-.746-2.716-1.999-5.404-2.148-8.153-.596-10.999-.873-22.016-1.222-33.027-.305-9.637-.554-19.276-.807-28.915-.017-.653-.09-1.483.251-1.939 4.116-5.488 8.305-10.921 12.778-16.764.528 5.144.682 10.053 1.618 14.808.952 4.836 2.771 9.495 4 14.286.374 1.456.542 3.307-.029 4.612-7.471 17.062-12.194 34.737-12.445 53.472-.006.424-.343.844-.525 1.266-.49.119-.981.237-1.471.354zm3.535-70.612c-3.143 8.986-.8 18.267-1.209 28.197 6.241-9.56 7.309-18.634 1.209-28.197zM137.614 120.012c5.388-3.172 9.219-7.255 10.184-13.806.693-4.709 7.49-11.122 12.792-11.308 3.127-.11 6.242-.583 8.415-.798 2.343 3.633 5.332 6.55 6.198 10 1.421 5.663-1.403 10.421-5.884 14.098-3.891 3.193-7.655 5.183-13.351 4.238-5.03-.834-10.478.859-15.742 1.436l-.006 1.542c-.877-1.818-1.754-3.636-2.606-5.402zm27.536-19.437c-8.923.543-10.891 2.827-13.938 15.721 2.039 0 4.1-.36 5.982.069 5.255 1.198 7.924-2.397 10.717-5.558 2.842-3.217-.609-5.379-1.762-7.9-.334-.726-.631-1.468-.999-2.332zM193.533 544.001c.728 4.882 2.195 9.794 1.998 14.639-.247 6.07-.582 11.881 2.46 17.433.505.922.313 2.499-.072 3.592-2.885 8.185-5.899 16.325-8.873 24.479.46.154.921.308 1.381.462.783-20.062 1.565-40.124 2.348-60.185.252-.141.505-.281.758-.42zM189.447 610.255v19.888c-.356.03-.713.06-1.069.09-.231-3.143-.769-6.302-.61-9.425.166-3.267 1.001-6.499 1.679-10.553z"/><path fill="#272727" d="M458.984 117.339c6.606 2.332 6.927 9.854 9.315 16.005.282.727-.091 2.055-.638 2.7-3.645 4.298-7.386 8.516-11.165 12.698-1.958 2.166-3.983 2.12-6.595.61-13.364-7.73-17.732-6.673-26.514 6.398-1.943 2.892-4.142 3.851-7.646 4.368-5.795.855-11.419 3.007-17.044 4.831-3.235 1.049-6.331 2.529-9.489 3.815-.417-.402-.835-.804-1.252-1.206 2.967-4.992 5.566-10.256 9.002-14.901 3.63-4.908 7.976-9.303 12.203-13.738.805-.844 2.735-1.474 3.762-1.112 8.489 2.992 16.065.305 23.406-3.554 5.284-2.778 10.59-5.614 15.478-9.012 2.715-1.89 4.594-4.983 7.177-7.902zM189.204 686.648v27.913c-.321-.014-.642-.028-.964-.041v-27.895c.322.008.643.016.964.023zM272.551 296.071c6.1 9.563 5.032 18.638-1.209 28.197.409-9.93-1.933-19.211 1.209-28.197zM165.15 100.575c.368.864.666 1.606.998 2.332 1.154 2.522 4.604 4.683 1.762 7.9-2.792 3.161-5.462 6.755-10.717 5.558-1.881-.429-3.943-.069-5.982-.069 3.048-12.895 5.016-15.178 13.939-15.721z"/></g></svg>