<svg version="1.1" id="Layer_1" xmlns="http://www.w3.org/2000/svg" x="0" y="0" viewBox="0 0 436 303" xml:space="preserve"><style>.st0{fill:#fff}.st1{fill:#b73c2f}</style><path class="st0" d="M14.4 165.2c.3-1.6.5-3.3.9-4.9 1.8-6.9 6.5-10.7 13.3-11.9 2.1-.4 4.3-.5 6.4-.5 5.7 0 11.4-.2 17.1.3 8.8.7 14.8 5.9 15.6 15.3.5 6 .2 12.1.3 18.2 0 1.3-.7 1.9-1.9 1.9H51.8c-1.4 0-2-.8-2-2.4v-10.3c0-3.4-1.8-5.2-5.2-5.2h-6.8c-3 0-5.1 1.8-5.1 4.8-.1 6.2 0 12.3-.1 18.5 0 .9.6.9 1.2 1.1 8.1 2.7 16.3 5.3 24.4 8 2 .7 4 1.3 6 2 2.8.9 4 2.5 4 5.5 0 10.7.1 21.3-.1 32 0 2.6-.6 5.3-1.5 7.8-2.1 5.8-6.6 8.8-12.6 9.8-2.2.4-4.4.5-6.6.5-5.7 0-11.4.2-17.1-.3-8-.6-13.9-5.1-15.5-14-.2-1-.3-1.9-.5-2.9v-17c.5-.9 1.2-1.3 2.3-1.3h13.7c1.8 0 2.3.5 2.3 2.3v10.4c0 3.2 2 5.1 5.2 5.1h6.8c3.4 0 5.2-1.8 5.2-5.3v-16.9c0-.9-.3-1.3-1.1-1.6-9.9-3.2-19.8-6.6-29.8-9.8-2.2-.7-3.9-1.8-4.6-4.1.1-11.8.1-23.5.1-35.1zM407.4 218.3c1.1 4.1 2.2 8.4 3.4 12.7 1.9 7.3 3.8 14.5 5.7 21.8.5 2-.1 2.7-2 2.7h-13.3c-1.7 0-2.3-.4-2.7-2.1-2.7-10.1-5.3-20.1-8-30.2-.3-1.2-.3-2.8-1.1-3.4-.8-.6-2.4-.2-3.7-.3h-5.5v33.3c0 2.2-.5 2.7-2.8 2.7h-12.6c-2.3 0-2.9-.5-2.9-2.9v-95.9-6.2c0-1.9.7-2.6 2.6-2.6 11.2 0 22.5-.1 33.7 0 4.2 0 8.3.8 11.9 3.2 3.7 2.5 5.7 6.2 6.4 10.5.3 1.9.5 3.8.5 5.7 0 11.4.1 22.8 0 34.2 0 4.7-1.2 9.2-4.6 12.7-1.3 1.6-3.1 2.7-5 4.1zm-27.1-52.7v36.2h13.4c3.2 0 5.2-1.9 5.2-5.1v-26c0-3.2-1.9-5.1-5.1-5.1h-13.5zM205.3 201.7V151c0-2.6.5-3.1 3.2-3.1h30.9c2.9 0 5.7.3 8.5 1.3 6.2 2.2 9.6 6.7 10.6 13.1.4 2.2.5 4.4.5 6.6 0 22.3.1 44.7 0 67 0 2.7-.3 5.4-1.1 8-1.8 6.6-6.5 10.1-13.1 11.2-2.1.4-4.3.5-6.4.5h-30.2c-2.4 0-2.9-.5-2.9-2.9v-51zm18.3 36.1h12.6c3.2 0 5.1-1.8 5.1-5v-62c0-3.2-1.9-5.1-5.1-5.2h-11.5c-.3 0-.7 0-1 .1-.1 24.1-.1 48-.1 72.1zM132.7 201.9c0 11.8.1 23.7-.1 35.5 0 2.5-.5 5-1.3 7.4-2 6.1-6.6 9.3-12.8 10.3-2.2.4-4.4.5-6.7.5-5.6 0-11.2.1-16.8-.3-8.3-.6-14.3-5.2-15.7-14.2-.3-1.8-.4-3.7-.5-5.6 0-22.6-.1-45.1 0-67.7 0-2.6.3-5.4 1-7.9 1.8-6.4 6.3-10.1 12.8-11.3 1.9-.4 3.9-.5 5.8-.5 5.4-.1 10.7-.1 16.1 0 2.8 0 5.6.5 8.3 1.7 6 2.6 8.7 7.4 9.5 13.6.2 2 .3 4.1.3 6.1.1 10.8.1 21.6.1 32.4zm-17.3 0v-31.4c0-3.2-1.9-5.1-5.1-5.1h-8c-3.6 0-5.4 1.7-5.5 5.3v62.5c.3 3.4 2 5 5.4 5h7.8c3.6 0 5.4-1.8 5.4-5.5v-30.8zM308.3 99.7c.3-1.2.6-2.5.9-3.7 3.3-15.7 6.6-31.4 9.9-47 .4-1.8 1.1-2.4 3-2.4h5.8c1.7 0 2.4.6 2.8 2.2 1.9 8.9 3.7 17.8 5.5 26.6 1.6 7.7 3.2 15.5 4.9 23.2.1.4.2.7.4 1.3.2-.4.4-.6.4-.7l1.5-16.8c.4-5 .9-9.9 1.4-14.9.4-4.1.7-8.2 1-12.3.2-2.3.4-4.5.7-6.8.2-1.3.9-1.9 2.2-1.9H359c1.4 0 2.2.8 2.1 2.2-.4 3.6-.8 7.1-1.2 10.7-.5 4.6-1.1 9.3-1.6 13.9s-1 9.1-1.5 13.7c-.4 3.9-.9 7.8-1.3 11.8-.5 4.6-1 9.1-1.5 13.7s-1 9.3-1.6 13.9c-.2 1.9-.5 3.7-.7 5.6-.1 1.3-.9 1.8-2.1 1.9-3.6 0-7.3.1-10.9 0-1.4 0-2-.7-2.4-2.3-1.1-5-2.3-9.9-3.4-14.9-2.6-11.2-5.2-22.5-8-33.7-.4 1.6-.8 3.1-1.1 4.7-3.4 14.6-6.8 29.2-10.1 43.8-.4 1.8-1.1 2.4-3 2.4h-10c-2 0-2.6-.5-2.8-2.5-.6-5.5-1.2-11-1.7-16.5-.5-4.8-1.1-9.7-1.6-14.5L293.1 86c-.5-4.8-1.1-9.6-1.6-14.4-.4-4-.8-8.1-1.3-12.1-.4-3.4-.7-6.7-1.1-10.1-.2-1.8.5-2.8 2.3-2.8h9.7c1.7 0 2.4.6 2.6 2.3.4 4.6.8 9.1 1.2 13.7.5 5.3.9 10.6 1.4 15.9.4 4.3.7 8.5 1 12.8.2 2.8.5 5.7.7 8.5 0-.2.1-.1.3-.1zM316.7 165.9v26.9H341.6c2.3 0 2.8.5 2.8 2.8v12.5c0 1.9-.6 2.5-2.5 2.5h-24.1c-.8 0-1.3 0-1.3 1v25.5c0 .2 0 .4.1.7h32.8c.5 0 1 0 1.4.1.9.1 1.4.7 1.4 1.6v14.3c0 1-.6 1.5-1.5 1.7-.5.1-1 .1-1.4.1h-47.6c-2.4 0-3-.6-3-3V150.9c0-2.3.5-2.8 2.8-2.8h48.1c2.4 0 2.7.3 2.7 2.7v12.3c0 2.2-.5 2.8-2.7 2.8h-32.9zM83.2 85.8v45.3c0 2.3-.4 2.7-2.7 2.7h-9.8c-1.8 0-2.3-.5-2.3-2.3V48.8c0-1.7.6-2.3 2.3-2.3h9.7c1.7 0 2.1.3 2.6 1.9l15.9 44.4c.2.5.5 1 .7 1.5.1-.1.3-.1.4-.2v-1.4-43.6c0-2.3.4-2.7 2.7-2.7h9.8c1.8 0 2.3.5 2.3 2.3v82.7c0 1.7-.6 2.3-2.3 2.3h-9.7c-1.7 0-2.1-.3-2.6-1.9-5.4-15-10.7-30-16.1-45.1-.1-.4-.4-.7-.6-1.1 0 .1-.1.2-.3.2zM211.6 94.2v-1.4-43.6c0-2.3.4-2.7 2.7-2.7h9.8c1.8 0 2.3.5 2.3 2.2v82.7c0 1.7-.6 2.3-2.3 2.3h-9.7c-1.7 0-2.1-.3-2.6-1.9-5.4-15-10.7-30-16.1-45.1-.1-.4-.4-.8-.6-1.1-.1 0-.2.1-.4.1V131c0 2.3-.4 2.7-2.7 2.7h-9.7c-1.9 0-2.5-.5-2.5-2.4V48.8c0-1.9.5-2.4 2.4-2.4h9.6c1.7 0 2.1.3 2.6 1.8 5.3 14.8 10.6 29.7 15.8 44.5.2.5.5 1 .7 1.5.4.1.5 0 .7 0zM401.3 94.2v-1.4-43.6c0-2.3.4-2.6 2.6-2.6h9.7c2.1 0 2.5.5 2.5 2.5v82.2c0 2.1-.5 2.6-2.6 2.6h-9.4c-1.7 0-2.2-.3-2.7-1.9-5.3-15-10.7-30-16-44.9-.1-.4-.4-.8-.5-1.2-.1 0-.3 0-.4.1v45.3c0 2.3-.4 2.7-2.6 2.7h-10c-1.7 0-2.3-.6-2.3-2.3V49.1c0-1.8.5-2.4 2.3-2.4h9.6c1.8 0 2.1.3 2.7 1.9 5.3 14.8 10.6 29.7 15.8 44.5.2.5.4 1 .7 1.5.3-.3.4-.4.6-.4zM280.1 90.1v27.4c0 2.1-.2 4.2-.7 6.3-1.4 5.6-5.9 9.4-11.7 9.7-6.2.2-12.5.3-18.7 0-6.7-.3-11.7-5.5-12.2-12.2-.2-2-.2-4.1-.2-6.1V62.6c0-2.1.3-4.2.8-6.3 1.4-5.5 6-9.3 11.7-9.5 6.2-.2 12.4-.2 18.6 0 6.4.3 11.2 4.9 12.1 11.2.2 1.6.4 3.3.4 4.9-.1 9.1-.1 18.1-.1 27.2zm-14.1.1v-6.8-18.6c0-2.7-1.3-4.1-4-4.2-2.5-.1-5-.1-7.5 0-1.8.1-3 1.2-3.3 3-.1.7-.2 1.3-.2 2v48.9c0 .7.1 1.4.2 2 .3 1.8 1.5 2.9 3.3 3 2.5.1 5 .1 7.4.1 2.9-.1 4.1-1.5 4.1-4.4v-25zM142.7 99.7c-1.4 2.6-2.6 5-3.9 7.5-.2.4-.1.9-.1 1.3v22.3c0 2.4-.6 3-2.9 3h-9.2c-2 0-2.7-.7-2.7-2.6v-82c0-2 .7-2.6 2.7-2.6h8.5c3.3 0 3.6.3 3.6 3.6V82.1c.1 0 .1.1.2.1.2-.4.4-.7.6-1.1 5.3-10.7 10.5-21.5 15.7-32.2.8-1.6 1.8-2.4 3.6-2.3 3.3.1 6.6 0 10 0 2.5 0 3.1.8 1.9 3.2L153 86.1c-.4.9-.5 1.5-.1 2.4 6.4 14.1 12.7 28.2 19 42.4 0 .1.1.2.1.3.8 1.8.2 2.6-1.7 2.7h-9.1c-4.6.1-4.2-.3-5.6-3.7-4.1-9.7-8.3-19.4-12.4-29.1-.1-.5-.3-.9-.5-1.4zM59.5 84.1v33.8c0 2.1-.3 4.2-.8 6.1-1.4 5.5-6 9.3-11.7 9.5-6.2.2-12.4.3-18.6 0-6.8-.3-11.9-5.6-12.3-12.4-.1-2.2-.2-4.5-.2-6.7V49.7c0-2.5.7-3.2 3.2-3.2h8.3c2.8 0 3.4.6 3.4 3.3v65.8c.1 2.2 1.5 3.7 3.7 3.7 2.3.1 4.6 0 6.8 0 2.3 0 3.8-1.6 3.8-3.9V108 49.5c0-2.4.7-3.1 3-3.1h8.5c2 0 2.8.8 2.8 2.8.1 11.7.1 23.3.1 34.9zM161.7 237.8H193c2.3 0 2.8.5 2.9 2.8v12.2c0 2.2-.5 2.7-2.8 2.7h-46.8c-2.3 0-2.9-.6-2.9-2.9V150.9c0-2.4.5-2.9 2.9-2.9h12.8c2.1 0 2.5.5 2.5 2.5V236c.1.6.1 1.1.1 1.8zM288.1 201.8v50.9c0 2.2-.6 2.8-2.8 2.8h-12.6c-2.2 0-2.8-.6-2.8-2.8v-102c0-2.2.5-2.7 2.7-2.7h13.1c1.9 0 2.5.6 2.5 2.5-.1 17.2-.1 34.2-.1 51.3z"/><g><path class="st1" d="M163.9 273.9h.7c-.1.9.3 1.3 1.2 1.2.6-.1 1.2-.1 1.8-.2.9 0 1.7.3 2.1 1.2.6 1.4 1 1.6 2.3.9-.3-.3-.7-.6-1-1 1.1-.1 2.1.1 2.6-.4.7-.6 1.3-.6 2.1-.5h1.5c1.5.2 2.9-.5 4.5-.2 1.7.3 3.5 0 5.3 0 .4 0 .8-.1 1.2 0 1.6.5 3 .1 3.5-1.1h1.9c.1 1.6 1.6 1.1 2.3 1.8.4.4.7.8 1.1 1.2l.9-1.2c.2-.2.4-.6.7-.6 1.1 0 2.3.1 3.4.1.3 0 .6.1.9 0 1.9-.4 3.7-.5 5.6.2.8.3 1.9.2 2.7-.2.8-.4 1.2-.3 1.7.2s1 1 1.7 1.6c.2-1.9.2-1.9 1.8-2 .2 0 .3-.1.5-.1 1.3 0 2.7-.2 3.9.1.8.2 1.6.5 2.4.2 1-.3 1.6-.3 1.6 1.1 1.4-1.6 2-1.7 3.8-1 .9-.2 1.8-.3 2.8-.3.9 0 1.5-.3 1.6-1.2h.7c.2.9.8 1.2 1.6 1.2.7 0 1.5-.2 2.1-.1 1 .2 1.4-.2 1.5-1.1h1c.2 1 .9 1.3 1.8 1.2 1.3-.1 2.6-.1 3.9-.1h6.7c1.2 0 2.4-.1 3.6 0 1.1.1 2.1-.5 3.4 0 1.1.4 2.5.1 3.8.1 1.3 0 2.7-.4 4-.2 1.5.2 2.9.2 3.9-.5.9.3 1.6.5 2.3.7 1 .2 2.1-.3 2.9.7.1.1.5 0 .8-.1 1.1-.2 2.3-.6 3.4-.6 1.4 0 2.8.8 4.2-.1.1-.1.3-.1.3 0 .7 1.1 1.6.1 2.3.1 3.4 0 6.8.1 10.2.1 1.4 0 2.9.4 4.1-.7.7 1.2 1.8.4 2.7.6 1 .2 1.6-.1 1.9-1.1h.2c.3.1.7.2.8.4.7 1.1 1.5.9 2.1.1.5.2 1 .6 1.5.6 1.2.1 2.4.1 3.7 0 1.4-.1 2.5.4 3.3 1.6.2.3.6.5.9.7.1-.1.2-.2.3-.4l-.9-.9c-.2-.3-.3-.7-.4-1 .3 0 .7-.2.9-.1 1 .2 1.5-.1 1.6-1.1h.5c0 1.1.5 1.4 1.5 1.2 1.1-.2 2.4.2 3.1-1.2h5c-.1.9.3 1.2 1.2 1.2h5.2c1.6 0 3.2.1 4.1 1.7.2.4.6.7 1 .8.2.1.7-.1.9-.3.1-.1-.1-.6-.2-.8-.2-.4-.5-.7-.7-1 .3-.1.6-.4.8-.4.4.2.7.5 1 .8.1.1.1.3.2.4.6-.5 1-1.1 1.5-1.2.9-.2 1.8 0 2.7-.1 1.7-.3 3.2 1.1 5.2.2 1.3-.6 3.2 0 4.8.2 1.2.1 2.3.3 3.5.4.7.1 1.4.1 2.1.1 1-.1 2-.2 3-.4.8-.2 2.6.6 2.9 1.4.1.3.4.4.7.7.2-.2.4-.5.5-.7.1-.2 0-.5 0-.7 0-.7.2-1.1 1-.6.3.2 1 .2 1.3 0 .5-.3.7-.2 1.2.1.4.3 1.1.2 1.6.2s1.1-.2 1.6-.2c.3-.1.7-.1 1-.1h1.7c.5 0 1 .1 1.5.1.3 0 .6-.1.9 0 1.1.2 2.2.4 3.2.6 1.1.2 2.2.3 3.2.5.3 0 .6-.2.9-.2 1 0 2 0 3-.1h1.2c1 0 2.3-.5 3 0 1.1.7 2.1.6 3.2.6 1.2-.1 2.3-.2 3.5-.3 1-.1 2.4 1 2.5 2 0 .3.4.8.7.9 1.2.3 1.3-.4 1.2-1.5 1 1.5 1.8.8 2.9.2.7-.4 1.6-.7 2.8 0-.5.1-.7.1-.8.2-.3.1-.7.3-1 .4.2.3.5.6.7.9.2.2.5.4.7.6.4.5.7.7 1.5.3.5-.3 2 .1 2 .4.2 1.1.3 2.1 1.7 2.4-.8.3-1.8.2-2 .5-.7 1.5-1.7 1.3-2.8.6-.2-.1-.4 0-.6 0h-16.2c-.7 0-1.4.1-2 0-1.6-.2-3.4.6-4.9-.7-.2-.2-1-.2-1.1 0-.9 1.1-2.1.7-3.2.8-.6.1-1.4-.1-1.9-.4-.6-.5-1-.5-1.6 0-.6.5-1.4.7-2.1 0-.2-.2-.7-.3-1.1-.3-1.3 0-2.5 0-3.8.1-1 .1-1.9.2-2.9.3-.3 0-.5.1-.8.1-1-.1-2.1-.6-3.1-.4-.9.2-1.7.1-2.5 0-2.3-.2-4.7-.1-7-.1H357c-1.1.1-2.4-.5-3.3.7-1.5-.7-2.8-1.5-4.6-.9-.9.3-2-.1-3-.2-.3 0-.6-.2-.8-.1-1.2.3-2.5-.8-3.6.3-.1 0-.2 0-.3-.1-1.9-.3-3.9-.8-5.8.2-.1.1-.3.1-.5 0-1.8-.6-3.6-1-5.4 0-1.6-1.7-3.2.3-4.9 0-1-.1-2.1 0-3.2 0-1.5 0-3 .6-4.4-.5-.1-.1-.5.1-.7.2-.4.3-.8.6-1.1.8-.7-.2-1.2-.4-1.7-.4-2.9 0-5.8.1-8.6.1-.7 0-1.5-.2-2.2-.5-.6-.3-.8-.3-1.3.1s-1.3.7-1.9.7c-1.8 0-3.7-.3-5.5-.4-1.9-.1-3.9 0-5.8-.1-.9 0-1.8-.4-2.7-.3-1.4 0-2.8.2-4.2.3-.4 0-.9.1-1.3.1-.9.1-1.8.2-2.6.2-.7 0-1.4.1-2 .1-1-.2-1.8-.4-2.7-.4-.7 0-1.4.2-2.1.3-.8.1-1.9.6-2.2.3-1-1-2.1-.5-3.2-.6-.6-.1-1.2.4-1.8.6-.3.1-.9.3-1 .2-.6-.7-1.5-.6-2.3-.6-2.8-.1-5.7-.1-8.5-.1-.8 0-1.1.5-1.1 1.3 0 1.3 1.9 2 3.4 1.5.9-.3 1.8-.5 2.7-.6 1.1-.1 2.2 1 3.4.1.1 0 .3.2.5.3 1.2.2 2.5-.2 3.6.4.1 0 .3-.2.5-.3.2-.1.4-.1.5-.1h1.7c.6.7 1.5.7 2.5 0 .3-.2.9-.2 1.2 0 .6.5 1.1.4 1.7 0 .3-.2.8-.4.9-.3 1.1 1.5 2.7.2 4.1.6 1.2.4 2.7.1 4 .1 1.4 0 2.8-.1 4.3-.2.3 0 .6-.1.8 0 1.7.7 3.1.4 4.6-.7.6 1.1 1.4 1 2.4.3.7-.4 1.6-.7 2.4.2.2.2.8.3 1.1.1 1.6-1 3.3-.5 5-.7 2.1-.2 4.2-.2 6.3-.1 1.3.1 2.6.4 4 .6 1.1.1 2.2.8 3.1-.3.1-.1.3-.2.4-.2h3.9c.3 0 .5.2.8.3 1.5 1 3.1.9 4.6.2.7-.3 1.1-.3 1.7 0 .3.2 1 0 1.5 0 .6-.1 1.2-.4 1.7-.3 1.3.1 2.6.7 3.8.6 1.4 0 2.7-.2 4.1.1h.1c1.4 0 2.8-.1 4.2-.1.6 0 1.3.1 1.9.1 1.2-.1 2.5-.1 3.6-.5.7-.3 1.1-.3 1.8.1.8.4 1.9.4 2.7.1.4-.1.7-.5 1.3-.3.3.1.7 0 1 0 .8-.1 1.6-.3 2.4-.2 1.2.1 2.3.6 3.5.7.9.1 1.8-.3 2.7-.2 1.3.1 2.6.3 3.9-.4.1-.1.4 0 .6 0 1.1.2 2.3.5 3.4.5 1.3 0 2.5-.4 3.8.1.5.2 1.5 0 2-.4 1-.8 2-.6 2.8-.1 1.1.7 1.9.6 2.6-.1.6.2 1 .5 1.4.5 3 .1 6-.2 8.9.7.3.1.9.1 1.1-.1 1.5-1.3 3 .4 4.5-.1l.1.1c.5.1 1 .4 1.6.4 1.8 0 3.6-.1 5.4.1 1.3.1 2.8 0 3.9 1-.5.3-1.1.5-1.4.9-.9 1.3-3.9 2.2-5.4 1.7-1-.3-2.2-.4-3.2-.5-1.2-.1-2.4-.2-3.5-.4-1-.1-2.1-.4-3.1-.4-.7 0-1.4 0-2 .4-.8.5-1.5 1.4-2.6.4-.1-.1-.3-.1-.5-.1-1.3-.1-2.7-.2-4-.2-1.4 0-2.8.1-4.2.1-.7 0-1.6.1-2.2-.2-1.5-.8-1.6-.9-2.5.4-1.1-.9-1.1-.9-2.5-.3-1.2-1.1-2.4-.5-3.5 0-.5-.2-.8-.4-1.2-.5-2.5-.6-5 .5-7.5 0-.3-.1-.6.3-1 .4-.6.1-1.3.3-1.8 0-1.7-1-3.7-.9-5.1-.2-1.2.5-1.9.1-2.6-.3-1.4-.7-2.8-.7-3.5 0-1.9 0-3.4-.2-4.9 0-2 .3-3.9.1-5.8.1-1.5 0-3.2-.6-4.6.6-.2.2-1 0-1.3-.2-.5-.5-.8-.3-1.3-.1-.8.3-1.9.5-2.5.1-.9-.5-1.4-.5-1.8 0-.6-.2-1.3-.6-1.5-.4-.9.8-1.7.8-2.6 0-.1-.1-.4-.1-.6-.1-2.1-.1-4.3.7-6.4.2h-.2c-.8.1-1.5.3-2.3.2-2.5-.3-4.9-1-7.4.2-.7.3-2-.1-3-.2-.9-.1-1.6-.4-2.5.1-.4.2-.9.3-1.4.3-.9 0-1.9-.5-2.7-.2-1 .3-1.8.3-2.3-.3-.7.2-1.3.5-1.9.4-1.6-.1-3.1-.5-4.7-.6-.3 0-.6.2-1 .4-.2.1-.4.3-.6.3-1.6.1-3.2 0-4.7.1-1.9.1-3.8.3-5.7.5h-.5l-4.8-.6h-.2c-1.4 0-2.8-.2-4.1.1-1.3.3-2.4.7-3.7 0-.1-.1-.4 0-.6 0-1.6 0-3.3-.1-4.9 0-.6 0-1.3.5-1.9.6-.3.1-.8.2-.9 0-.6-.8-1.4-.7-2.2-.7-1.8 0-3.5-.1-5.3 0-1 0-2 .3-2.9.5-.6-.2-1.3-.3-2-.5-1.8-.5-3.6 1.2-5.4 0h-.2l-2.1 1.2c-.7-.3-1.5-1.1-2.4-1.1-3.8-.2-7.5-.1-11.3-.1-.5 0-1 .4-1.5.6-.3.1-.7.2-.9.1-1.6-1-4-.9-5.7.2-1.2-1.2-2.7-1.6-4.3-1.5-.9.1-1.7.6-2.5.6-2.1.1-4.2-.2-6.3-.1-.9 0-1.8.5-2.8.6-.5.1-1 0-1.5 0-1.5-.1-3-.2-4.5-.4h-1.3c-.9 0-1.9-.1-2.8.2-.6.2-.9.4-1.5 0-1-.7-3.2-.5-4.1.2-.2.2-.7.1-1 0-.3-.1-.6-.5-.9-.5-2.3-.1-4.5-.1-6.8-.2-1.2 0-2.5.3-3.7 0-1.2-.3-2.3-1-3.5 0-.1.1-.4.1-.6.1h-3.8c-.5 0-.9.4-1.4.5-.9.1-2.2.6-2.8.2-.9-.6-1.7-.6-2.7-.7-2.2-.2-4.3.4-6.5.1-1-.1-2.1.1-3.1.1-2.7 0-5.4-.1-8.1-.1-.2 0-.5.1-.7.2-1.4 1.2-2.9.5-4.3 0-1.3-.5-2.5-.2-3.7.2-1.1.4-1.9.5-2.9-.1-.4-.3-1.2-.3-1.6-.1-1.2.7-4 .8-5.1.1-.3-.2-1-.3-1.3-.1-1.9 1.1-3.9.5-5.8.7-1.2.1-2.5 0-3.7-.1-1-.1-2-.5-2.9.2-1.4-.9-2.8-.3-4.2-.2-1.6.1-3.1.1-4.7.1-2.5 0-5.1-.1-7.6 0-.8 0-1.6.3-2.6.5 0 0-.4-.3-.7-.4-1-.3-2.3.3-3.2-.7 0-.1-.3.1-.5.2-1.7.7-3.3.6-5 0-.8-.3-2-.6-2.5-.2-1.1 1-2.3.8-3.5.6-1.7-.2-3.5.7-5.1-.6-.2-.1-.6.1-.9.2-.3.1-.5.2-.8.3-1.9.5-3.8-.8-5.7.2-.1.1-.3-.1-.5-.1-.9-.1-1.8-.3-2.7-.3-1.9.1-3.9.2-5.8.3-.7 0-1.4.2-2.1.1-1.5 0-3-.4-4.6-.3-3.4.3-6.9 0-10.3 0-1.1 0-2.2-1.4-3.3 0 0 .1-.3-.1-.5-.2-.7-.2-1.5-.6-2.2-.6-1.6-.1-3.1 0-4.7 0-.5 0-.9-.3-1.4-.5.3-.4.6-.9 1-1.2.4-.3.9-.3 1.4-.4.4-.1.9 0 1.3-.2 1.6-.8 3.3-.7 5-.7.6 0 1.3-.3 1.9-.4.1 0 .3-.1.4-.1h1.9c.4.1 1.1.4 1.7.4.8 0 1.6-.3 2.4-.3 2.8.1 5.6.4 8.4.2 1.1-.1 2-.2 3.1 0 1.9.3 4-.1 6-.1 1.3 0 2.5.1 3.8.2 1.3 0 3 .4 4-.2 1.4-.8 2.3-.6 3.7 0 .9.4 2.4.4 3.3-.1.8-.4 1.3-.7 2 0 .2.2.5.2.8.2 2.2.4 4.4-.4 6.6 0 .1 0 .3-.1.4-.2.9-.9 2.1-.5 2.9-.1 1.1.6 1.8.6 2.3-.1 1.1-.1 1.9-.2 2.7-.4.4-.1.9-.6 1-.9.1-.7-.3-1.2-1.1-1.2h-3c-1.5 0-3.1-.2-4.2 1.2h-.3c-.3-1-1-1.2-2-1.2-3.1 0-6.2 0-9.4.1-1.3 0-2.7-.5-3.7 1.5-.3-1.6-1.2-1.5-2.1-1.5h-9.5c-2.8 0-5.6.2-8.5.3-.3 0-.5.1-.8.2-2.2.8-4.4.2-6.6.3-.2 0-.4-.3-.6-.3-1-.1-2.2-.3-3 0-1 .4-1.7.7-2.6-.1-.7-.5-2.3-.2-2.6.4-.5.8-1 .9-1.5 0-.6-1-1.4-.9-2.3-.6-.3.1-.6.3-1.1.5-.1-.7-.4-1.4-.2-1.8.3-.7 1-1.2 1.5-1.8.1.1.4.2.9.5 0-.4 0-.7-.1-.8-.6-.4-.7-1-.3-1.4.3-.3.9-.3 1.3-.4.3-.1 1-.2 1-.4 0-.9.5-1.2 1.3-1.3.7-.1 1.4-.3 2.1-.5 1.3-.3 2.7-.5 4.2-.7.5.1 1.1.4 1.8.4 2.2.1 4.3.1 6.5 0 .8 0 1.5-.4 2.3-.6.2-.1.6-.1.7 0 1.2 1 2.4.6 3.7.1.6-.2 1.2-.1 1.9 0 .5 0 .9.1 1.4 0 .5-.1 1.1-.4 1.6-.4H56c.9 0 1.8-.1 2.2.9.1.2.5.3 1 .6-.4-1.6-.4-1.6 1.1-1.5h1c1.6.1 3.1-.1 4.6.2 1.9.4 3.8.6 5.7 0 .2-.1.6.1.8.2.4.1.9.3 1.3.3 1-.1 2.2-.7 2.9-.4 1.3.6 2.2.5 3.3-.1.3-.2.9 0 1.3-.1 1.6-.2 3.3.4 4.6-.5.6.2 1 .5 1.5.5 1.7.1 3.3 0 5 0 2.7 0 5.4-.1 8 .1 2.7.2 5.3-.6 8 0 1.8.4 3.9 0 5.8-.1h6.2c1.2 0 2.4.1 3.6 0 .9 0 1.9-.5 2.7-.2 1.8.7 3.5-1 5.2 0 .1 0 .3-.2.4-.2.5-.2 1-.5 1.5-.5 1.4 0 2.7.2 4.1.1.8 0 1.5-.2 2.3.3.5.3 1.5-.4 2.2-.4.9 0 1.8.8 2.8 0 .1-.1.6 0 .8.2.6.6 1.3.5 2.1.6 1.1.1 2-.2 2.9-.6.4-.2 1 0 1.5 0 1 .1 2 .2 3 .2.8 0 1.5-.4 2.3-.4 1 0 2 .9 3.1 0 .4-.4 1.5 0 2.2 0 .6-.3 1-.7.9-1.5zm-5.5 9.8c-.8-.1-1.8-.5-2.5-.3-1.5.5-3.1-.5-4.5.6-.1.1-.5-.1-.8-.2-.6-.2-1.4-.7-1.9-.5-1.6.7-3 .2-4.6 0-1.9-.3-3.9-.1-5.8 0-.6 0-1.1.3-1.9.5-.6-1-1-.5-1.6.4-.3.5-.9.8-1.4 1.2-1-2.2-1.1-2.3-3.1-2-1.2.2-2.4.7-3.7.1-.3-.1-.8-.1-1 .1-1.1.9-2.4.6-3.7.6-.6 0-1.2 0-1.3.8-.1.8.4 1.1 1.1 1.3 1.2.5 2.6-.4 3.7.7 0 0 .3-.1.4-.2.6-.1 1.2-.5 1.8-.3 1.8.5 3.4.2 5.1-.4.2-.1.5 0 .8-.1 1.4-.4 2.7 1.8 4.2.3h3.1c2 .1 3.9.2 5.9.3.8 0 1.6.1 2.5 0 .6-.1 1.3-.3 1.9-.4 1.4-.2 2.9.4 4.2-.7.2-.2.9-.1 1.2.1.8.7 1.7.6 2.6.4.3-.1.8-.2 1-.1 1 .5 1.8.3 2.3-.4.7.3 1.2.6 1.8.7 1.5.1 3.1-.4 4.5.5.1.1.5-.1.8-.2 1.1-.3 2.1-.8 3.2-.8 1.2-.1 2.4.5 3.6.4 2-.1 4.2.7 6-.7l1.2-.9c.4 1.7.4 1.7 2.1 1.7.6 0 1.3 0 1.9-.1 1-.1 2-.3 3.3-.4.4.1 1.1.4 1.8.4 2.2.1 4.4-.1 6.6 0 2.2.1 4.3-.3 6.5-.1 2 .2 4.1.1 6.2.1.7 0 1.5-.5 2-.3 1.3.5 2.4.4 3.6-.1.2-.1.5.1.8.1.8 0 1.6-.1 2.4-.1.3 0 .8-.3.9-.1 1 1 1.5 0 2-.5.7-.8-.2-1.2-.7-1.6-.4-.3-.9-.4-1.4-.4h-18.1c-2.7 0-5.3.1-8 .2-1.8 0-3.6.1-5.3.1-1.6 0-3.3-.2-4.9-.2-1.6 0-3.1-.1-4.7 0-1.4.1-3-.5-4 .5-.8-.2-1.5-.5-2.1-.5-3.4-.1-6.8-.1-10.2 0-.8 0-1.6.4-2.4.6-.4.1-1.1.3-1.3.1-.8-.7-1.5-.5-2.1-.2zm88.3.1c-.4-.2-.7-.5-1.1-.5-3.3 0-6.6.1-9.9.1-.7 0-1.5 0-2.2-.1-1.1-.1-2.1-.1-2.2 1.3 0 .1-.2.3-.4.5-.5-1.9-.5-1.9-2.5-1.8-.4 0-.9.1-1.3 0-1-.2-1.7.1-2.3.8-.2.3-.4.8-.3 1.2.1.3.6.7.9.7 1.4 0 2.9.7 4.3-.2.2-.1.5-.1.7 0 1.1.2 2.2.4 3.3.5.4 0 1-.1 1.3-.4 1-.8 1.7-.9 2.7-.2.3.2.7.5 1 .6 2.5.1 4.9.3 6.9-1.5.9.4 1.2 2.1 2.5.8.6-.6 1.1-1.2.5-1.9-.4-.8-1.2-.4-1.9.1zm-157.1 2.5c.5.2 1.2.7 1.3.6.8-.8 1.4-.7 2.2-.1.2.1.5.1.8 0 .9-.2 1.8-.2 2.6-.6.5-.2.7-.9 1.1-1.4-.4-.2-.7-.7-1.1-.7-.7 0-1.5.2-2.2.2-2.7 0-5.5-.2-8.2-.2-.6 0-1.3.5-1.8.9-.5.5-.4 1.1.4 1.2.9.1 1.8 0 2.7 0 .3 0 .7 0 .8.1.7 1.3 1.1.6 1.4 0zm25.3-.4c3 1.7 2.6 1.7 3.9.4.3-.3.6-1 .5-1.3-.1-.3-.7-.7-1.2-.7-1.4-.1-2.8-.1-4.2 0-.7 0-1.4.5-2.1.6-.5.1-1.2.2-1.5-.1-1.2-.9-3.7-.7-4.4.6-.1.2.1.9.3 1 .4.2.9.1 1.4.1 1 0 2-.3 2.8 0 1.7.3 3.1.3 4.5-.6zm-15.4-1.7c-.6 0-.9.6-1 1.4-.1.8.6.8 1.2.8h2.3c.2 0 .4.1.6.2 1.2.8 1.6.7 2.4-.6.2-.3.3-.9.1-1.2-.1-.3-.7-.5-1.1-.5-1.3-.2-2.7-.1-4.5-.1zm119.9-8.3c-.4.5-.6.7-.8 1 .4.3.7.6 1.1.7.2 0 .5-.4.8-.6l-1.1-1.1zm-6.8 1c-.6-.3-1-.6-1.3-.6-.3.1-.5.4-.8.7.3.2.5.5.8.5.3.1.6-.2 1.3-.6zm42.7-1.1c-.3.5-.7.8-.7 1 0 .2.4.5.6.7.2-.2.6-.4.6-.7.1-.2-.2-.5-.5-1zm-7.9 2c.3-.3.5-.5.6-.7-.2-.2-.5-.5-.7-.5-.2 0-.4.3-.7.5.2.1.4.3.8.7zm153.6 1c.3-.4.6-.7.6-.9 0-.2-.4-.5-.6-.5-.3.1-.6.4-.7.6 0 .2.3.4.7.8zm-61.6-1.5c.1-.2.2-.4.4-.6-.4-.2-.8-.4-1.1-.7-.1.2-.3.5-.3.5.2.4.6.6 1 .8zM106 294.5c-.7.6-1.3 1.3-2 1.9-.1.1-.8-.5-.9-.6-.8.1-1.4.1-1.9.2-.2 0-.5.2-.6.4-.1.2-.1.6 0 .8.1.2.4.3.6.5-.1.1-.2.3-.2.4-.3-.2-.7-.2-.9-.5-1.2-1.5-2.9-1.8-4.6-2-1.6-.1-3.2-.1-4.8-.1-.7 0-1.3.3-1.9.5v.5c-.3-.2-.5-.5-.9-.7-.3-.1-.7-.1-1.1-.2 0 .4-.1.8-.1 1.1.1.4.4.7.6 1-.1.1-.1.2-.2.3-.3-.1-.7-.2-.8-.4-.9-1.1-2.1-1.4-3.5-1.4-.4 0-.8-.3-1.2-.5-.9-.5-1.8-.7-2.6.1-.6.5-1.1.6-1.8.1-.3-.2-.9-.2-1.3-.1-1.1.2-2.1 1.2-3.1-.2-.1-.1-.5-.1-.5-.1-.1.2-.2.4-.1.6.1.2.3.4.4.9-.4-.1-1.1-.1-1.1-.2-.1-.6-.3-1.4.1-1.8 1.1-1.3 1.7-1.1 3.5-.8 1.1.2 2.3.2 3.4.4 1.2.2 2.6.1 3.8.1.4 0 .8 0 1.2-.2.6-.3 1.1-.7 1.7-.2.1.1.4 0 .6 0 1.7-.1 3.4-.3 5.1-.4 1 0 2 .3 3 .5h.3c1.5-1.3 3.5-.2 5.2-.9.7-.3 1.8.6 2.8.9.4.1.8.2 1.2.1.8-.2 1.5-.6 2.3-.8.1.5.2.6.3.8zM192.8 296.5c-.9-1.6-2.1-1.7-3.2-.5-.2.2-.6.4-.9.4-.7 0-1.2 0-1.7.7-.1.2-1.3 0-1.6-.4-.8-.9-1.5-1.3-2.8-1.1-1 .2-2.1-.3-3.1-.5-.3 0-.7.1-1 .2.1.3.1.7.2.9.8 1.1 0 1.3-1 1.6.1-.8 0-1.4.1-1.9.2-1-.2-1.2-1.1-1.2-.8.1-1.7-.1-2.5 0-.5.1-1 .4-1.2.8-.9 1.5-1.8 1.9-3.1 1.2.1-.8.2-1.6.3-2.5.5-.2 1.2-.5 2-.8.2-.1.7-.1.8 0 .7.8 1.5.5 2.3.5 2.5 0 5 .1 7.5.1.9 0 1.8-.4 2.7-.6.4-.1 1.1-.2 1.3 0 1.2 1.3 2.5.5 3.6 0s1.8-.1 2.3.5c.8.7.7 1.6.1 2.6zM247.2 297.4c-.6 0-1 .1-1.2 0-1-.6-1.9-1.4-2.9-2.1-.3-.2-.8-.3-1.2-.4 0 .5-.1 1 0 1.5.1.4.5.7.7 1.1-.2.1-.3.2-.5.3-.3-.5-.7-.9-1-1.4-.6-1.2-1.6-.8-2.5-.7-.3 0-.5.7-.9 1.2-.8-.8-1.9-1.6-3.4-1.3-.4.1-1.1.3-1.2.6-.2.8.5.7 1 .8.1 0 .2.1.4.2-.5.7-.9 1-1.5.1-.7-1-.8-2.5.1-3 .3-.2.7-.1 1.1-.1 1.3-.1 2.6 0 3.8-.2.8-.2 1.5-.7 2.2.2l.1.1c1.4-.1 2.9.1 4.3-.3.9-.2 1.5-.5 2.3 0 .4.3.9.4 1.3.4 1.5 0 2.9-.1 4.4-.2.2 0 .4 0 .6.1.4.2.8.4 1.1.6.1 0-.1.6-.2.6-.4 0-.9-.2-1.3-.2s-1-.1-1.3.1c-.7.3-1.3.9-2 1.1-1.2.4-2.1-.2-2.9-1.1-.3-.3-.8-.6-1.2-.6-.7 0-1.1.5-.4 1.1.4.4 1.1.8 2.2 1.5zM293.5 295.8c-.4-.9-1-1.1-1.7-.4-1.6-1.2-2-1.2-2.8.2-1.4.2-2.6-1.8-3.9-.4-1-.2-1.9-.4-3-.7 1.1-.5 1.8-.7 2.8-.5 2.5.5 5.1.3 7.7-.3.6-.1 1-.7 1.6-1.1.3.2.6.4 1 .7 1.5 1.3 3.3.6 4.9.7 1.1.1 2.3 0 3.4 0 0 .1.1.2.1.4-.2.2-.5.5-.6.5-1.5-.7-2.2 1.1-3.7.8 0 .1 0-.1-.1-.2-.3-.3-.6-.5-.8-.8-.3.3-.6.6-.8.9-.2.2-.3.4-.4.6-.2-.1-.5-.2-.6-.4-1-1.4-1.8-1.4-3.1 0zM316.1 293.9c-.9.5-1.8.9-2.8 1.4-.1-.3-.3-.6-.3-.9 0-.1.4-.4.6-.4 1.3-.2 2.5-1 3.8-.2.1.1.4 0 .6-.1 1.5-.8 3-.9 4.4.1.2.1.9-.1 1.1-.3.5-.6.9-.6 1.6-.4.7.2 1.5.1 2.3.2.5.1 1.1.1 1.6.2.6.1 1.1.2 1.7.3.5.1.9.1 1.4.1v.6c-1 .1-2 .3-3 .2-1-.1-2-.3-2.6.8-1.3-1.3-2.3-1.3-3 .2-.7-.5-1.3-1.2-2.1-1.3-.8-.1-1.9 0-2.5.6-.8.7-1.1.8-1.8 0-.2-.4-.6-.7-1-1.1zM116.6 295.3c-.7.7-1.5 1.1-2.4.3-.2-.2-.9-.1-1 .1-.2.3 0 .8 0 1.4-.4-.2-.8-.3-1.1-.5-.6-.5-1.1-.5-1.3.4-.3 1.2-.6 1.3-1.5.5-.8-.7-1.5-1.5-2.1-2.2 1-.4 1.9-.9 2.9-1.3.5-.2 1.2-.2 1.7-.1 1 .2 2 .6 3 .8.4.1.9.1 1.1-.1 1.5-1.2 2.6-.1 3.9.3v.5c-1 .1-2.1.1-3.1.2 0 0-.1-.2-.1-.3zM229 296.9c-.2-1.4-.9-1.8-2.2-1.3-.2.1-.7 0-.8-.1-1-1.4-2.1-.4-2.7.1-1.4 1.3-2.5 0-3.6-.3-.5-.2-.9-.9-1.2-1.7.6 0 1.4-.3 1.7-.1 1.4 1.3 3 .7 4.5.4.8-.2 1.5-.4 2.4 0 .7.3 1.5.4 2.1-.4.2-.3 1.1-.2 1.5 0 .4.2.6.9.7 1.4 0 .1-.6.4-.9.6-.5.4-.9.9-1.5 1.4zM31.7 297.3c-.7-.7-1.1-1.5-1.8-1.7-.7-.3-1.5-.3-2-1.2.3-.1.6-.3.8-.2 2.3.5 4.6-.5 6.9.6.5.3 1.3.2 1.9.1 1.2-.2 1.5 0 1.4 1.2-.8.2-1.6.2-2.4.5-.6.2-1.1.2-1.6-.3-.4-.5-2-.2-2.7.5-.2 0-.3.2-.5.5zM138.3 297.7l-1.5-1.8c-2.2 1-3.3-.8-5-1.4.9-.6 1.6-.6 2.4-.1.3.2.9.1 1.3 0 .3 0 .7-.4 1-.3 2.1.5 4.2-.1 6.3 0 .4 0 .7.4 1.1.5-.3.2-.6.5-.9.5-1.4.2-2.8.3-4.2.5-.2 0-.5.5-.5.8 0 .4.2.7.4 1.1-.2.1-.3.2-.4.2zM212.1 296.7c-.3-.4-.4-.6-.6-.9-.8-1.2-1.5-1.3-2.8-.8-.3.1-.8-.1-1.2-.1v-.6c.8-.1 1.6-.3 2.4-.3.9 0 2 .6 2.7-.4.1-.1.4-.2.5-.1 1 1 2.2.6 3.4.7h.4c.3.2.5.5.7.8-.3.2-.5.5-.8.5-.7 0-1.3-.1-2-.1-1 0-2.2-.4-2.7 1.3zM358.5 295.2c-1.2-.7-1.3-.6-1.7.9-.6-.3-1.2-.4-1.6-.8-.9-.9-1.5-.8-1.8.5-.5-.5-.9-.9-1.3-1.4.9-1 2-.8 3-.2.6.3 1 .2 1.6-.1 1-.5 2.3-.3 3.4-.7.6-.2 1.4.5 2.1.9.2.1.2.5.3.8-.3 0-.6.2-.8 0-1.1-.8-2.2-.8-3.2.1zM128.3 295.5c-.4 1-.9 1.1-1.7.4-.8-.7-1.6-.5-2.1.4-.2.4-.7.7-1.3 1 .2-1.4-.4-1.9-1.6-1.8-.2 0-.4-.4-.6-.6.2-.2.4-.5.6-.5.8 0 1.7.1 2.5.2.3 0 .7.3.9.2 1.3-.7 2.2.1 3.3.7zM65.1 295.3c-.3.2-.6.4-.9.4-1.1 0-2.3-.2-3.4-.1-.7.1-1.4.7-2 .7-.6-.1-.9-1-1.9-.5-.6.3-1.5-.3-2.3-.6 1-.2 2.1-.3 3.5-.6.7.8 1.8.7 3-.2.4-.3 1.3-.1 1.9 0 .6.1 1.2.5 2.1.9zM160.5 295.4c.2.8.4 1.2.5 1.6-.8.4-1.3 0-1.1-.7.4-1.3-.1-1.6-1.4-1.5 0-.1.1-.3.1-.4.8-.1 1.5-.1 2.3-.2.6 0 1.2-.1 1.8-.1.4 0 .7.1 1.1.2-.1.5-.2 1.1-.5 1.5 0 .1-.6-.1-1-.2-.5.1-1.1 0-1.8-.2zM151.3 296.1c-.5-.6-.7-1-1-1.4.4-.2.8-.5 1.3-.5 1.1-.1 2.1-.1 3.2 0 .3 0 .6.3.8.5-.2.3-.4.7-.7.7-.6.1-1.4.2-1.7-.1-.9-.8-1.5-.9-1.9.8zM273.9 294.3c.2-.2.4-.4.5-.4 1.6.6 3.5-.7 5 .8.2.2.8-.1 1.2-.1-.2.9-.6 1.1-1.4.6-.9-.6-1.6-1-2.7-.2-.9.6-1.8.3-2.6-.7zM164.8 294.2c.5 0 .9 0 1.3-.1.6-.1 1.2-.2 1.6-.5.8-.5 1.2-.3 1.5.5-1.6 1.5-3.1 1.6-4.4.1zM408.4 290.1c.4-.4.8-.7 1.1-1 .6 0 1.1-.1 1.7 0 .3.1.7.3.8.6.1.3 0 .8-.1 1.2-.3 0-.6-.1-.9-.1-.5-.1-.9-.1-1.4-.2-.4 0-.8-.1-1.2-.1-.1-.1-.1-.3 0-.4zM260.5 294.2c.6-.9 1.5-1.1 2.5-.5.5.3 1 .4 1.5.6.2.1.4.4.5.6-.3.2-.8.5-.8.5-1-1.1-2.4-.6-3.5-1-.1-.1-.1-.2-.2-.2zM204.1 294.4c-1.2.5-2 .9-2.8 1.1-.4.1-.9-.1-1.3-.3-.2-.1-.3-.7-.2-.8.3-.2.7-.4 1.1-.4 1 .1 2 .2 3.2.4zM47.6 295.4c-1.4.1-2.9.2-4.3.2v-.3c.9-.4 1.8-1 2.8-1.1.5-.1 1.1.5 1.7.7-.1.2-.1.4-.2.5zM399.2 294.3h3.7c.3 0 .6.3.8.6.1.1-.1.6-.2.6-.3 0-.6-.1-1-.2-.5-.1-1.1-.2-1.6-.3-.6-.1-1.2-.2-1.8-.2.1-.2.1-.4.1-.5zM364.4 294.1h3.4c.1 0 .3.2.4.4 0 .1-.2.4-.3.4-1.2 0-2.4.4-3.5-.4v-.4zM382.2 294.2h2.9c.2 0 .5.4.4.5-.1.3-.4.7-.7.7-.9.2-1.7-.2-2.6-1.2zM371.7 295.1c-.9-.4-1.5-.7-2.2-1 .2-.3.3-.7.5-.7.6 0 1.2.1 1.9.1-.1.4-.2.9-.2 1.6zM271 293.8c.4.4.7.8 1 1.1-.2.2-.6.7-.7.7-.5-.2-1-.5-1.5-.8.3-.3.7-.6 1.2-1zM409.2 295.4c-1.3.1-2.3.1-3.3.2v-.3c.6-.3 1.2-.7 1.9-1 .8-.4 1 .2 1.4 1.1zM52.8 295.4h-3.7c1.6-1.4 2.1-1.4 3.7 0zM388 294.2c.8 0 1.6-.1 2.5-.1 0 .1.1.3.1.4-.7.3-1.3.7-2 .9-.2 0-.5-.5-.8-.8.1-.2.2-.3.2-.4zM217.9 296.9c.9-.5 1.7-.3 2.4.3.1.1.1.5 0 .7 0 .1-.4.2-.5.1-.6-.3-1.2-.7-1.9-1.1zM395.9 294.4c1.3-.2 2.1.8 1.7 2.1-.6-.8-1.1-1.4-1.7-2.1zM129.4 294.8c.5-.1 1-.3 1.6-.3.1 0 .2.6.3.9h-1.8c-.1-.2-.1-.4-.1-.6zM69.8 295.3c-.9.2-1.7.4-2.7.6 0-.1-.1-.4-.1-.6.9-.1 1.9-.2 2.8-.3v.3zM380.1 294.3c-.3.9-.5 1.4-1.3.6-.3-.3-.8-.3-1.5-.6h2.8zM256.7 293.9c.3.3.5.6.8.8-.3.2-.6.6-.8.5-.4-.1-.6-.5-.9-.7.2-.1.5-.3.9-.6zM290.9 297.3c-.5-.2-1-.5-1.5-.7 0 0 .2-.4.3-.7l1.5.6c-.1.3-.2.6-.3.8zM347.8 294.7c-.4-.2-.8-.5-1.2-.7l.3-.6c.4.3.8.5 1.2.8 0 .2-.2.3-.3.5zM308.9 294c-.5.1-1 .3-1.4.3 0 0-.1-.4-.2-.6l1.5-.3c.1.3.1.4.1.6z"/><g><path class="st1" d="M382 17.9c.4-1 1.4-1.1 2.3-1.2.8-.2 1.7-.1 2.1-1.1.3-.8.2-1.3-.7-1.5-.9-.2-1.7-.6-2.7-.1-.4.2-1.3-.3-2-.6-.9-.4-1.8-.9-2.7-1.4-.4-.3 0-2.8.5-2.9.8-.2 1.6-.4 2.4.2.4.3 1.1.3 1.5.1.3-.2.5-.9.5-1.3 0-1.1.5-1.5 1.6-1 .5.3.9.7 1.4 1.1.3.2.6.5 1 .6.8.3 1.6.5 2.4.7.2.1.4.1.6.1.9-.1 2.8-1.8 2.9-2.8 0-.2.1-.5.2-.7 0-.1.1-.2.2-.3 1.2.7 1.4 1.3.9 2.3-.1.3 0 .7 0 1.1.4-.1.7-.2 1.1-.4.2-.1.2-.3.4-.4 1.5-.7 1.5-.7.9-2.2.4-.3.8-.6 1.3-.9.2-.1.7-.2.9 0 .7.7 1.3.6 2.1 0 .2-.2.8 0 1 .2.7.5 1.3.5 2.1 0 .3-.2.8-.2 1.1-.2 0 .4.1.7.1 1.1 0 .1-.1.2-.1.3-.6.9-1.1 1.8.2 2.5 1.2.7 3.1-.1 3.6-1.3.3-.8.6-1.6 1.1-2.3.2-.3.7-.3 1-.4 0 .3-.1.6-.1 1-.1.4-.3 1-.1 1.2 1.1 1.2 1.7 3.3 4 2.8.3-.1.7.2 1 .4 1.1.6 1.6.4 2-.7.1-.3.3-.7.5-1 .1-.3.3-.5.7-1 .8.6 1.5 1.1 2.2 1.7.4.4.6 1.3 1.4.8.2-.2 0-1 0-1.7 1-1 1.1-1 2.4 0 .6.4 1.1.9 1.6 1.4.5.6 1 1 1.8.6.2-.1.8.5 1 .8l1.8 2.4v.7c-.6-.2-1.1-.5-1.7-.7-.4-.2-.8-.3-1.2-.5-1 1.3-1 1.3-3.1-.4-.5 1.1-1.5 1.1-2.5 1-.1 0-.3.1-.3 0-.8-1.2-1.7-.6-2.6-.3-.3.1-.8-.2-1-.5-.7-.8-1.4-.7-2.3-.3-.1 0-.2.1-.2.1-2-.4-3.5 1.4-5.4 1.1-.3 0-.7-.3-1-.3-.4 0-.9-.1-1.2 0-1.4.9-2.7.5-4.2.1-.6-.1-1.2 0-1.8 0-.4 0-.8.2-1.3.2-.9.2-1.8.3-3 .5-.5-.6-1.4-1.1-2.7-.6-.1.1-.5-.1-.6-.3-.6-.5-1.2-.4-1.7.1-.7.6-1.5.7-2.5.5-1-.2-2.1-.1-3.2 0-.3 0-.8.5-.8.8-.1.6.1 1.3.2 1.9 0 0 .6.1.6 0 .8-1.2 2.1-.3 3.1-.8.1-.1.4.3.7.4.2.1.6.4.7.3 1.7-.7 3.3 0 5 .2 1 .1 2-.6 3.1-1 .5 1.3 1.6.9 2.7.6s2.3-.5 3.4-.6c.1 0 .3.2.5.3.8.7 1.6.9 2-.8.9 2.6 3.1 1.8 4.7 2.3.9.3 1 .5.6 1.2-.2.3-.4.7-.7 1-.4.6-1 .6-1.2-.1-.5-1.4-1.5-1.1-2.5-.7-.7.2-1 .3-1.4-.4-.5-.9-1.6-.8-2.4 0-.3.3-.5.6-.7.9-.2.3-.4.7-.5 1-.1 0-.3 0-.3-.1-1.2-1.6-2.8-1.7-4.5-.4-.8.6-1.3.9-1.6-.4-.1-.3-.3-.7-.5-.7-1.6-.5-3.2-1.2-4.9 0-1.5 1.2-3.4 1.3-5.2 1-.5-.1-.9-.6-1.4-.9l-.9-.6-.2.2c.2.3.3.6.5 1-.8.6-1.2-.1-1.5-.5-.5-1-1.3-1.7-2.5-1.5zm18.4-8.6h.4c.2-.3.6-.7.6-1-.1-.4-.5-.8-.7-1.2-.3.3-.7.5-.8.8 0 .6.3 1 .5 1.4zm2.7-.7c.3-.4.6-.7.6-1 0-.2-.3-.4-.4-.7-.3.2-.6.4-.8.8-.1.2.3.5.6.9zM152.3 8.2c.4.1.7.1 1 .2.7.4 1.4.2 2-.3.6-.6 1.3-.6 1.8.1.1.2.3.4.5.5 1 .9 1.8.9 2.7-.2 1.3-1.5 1.2-1.4 2.7-.3.3.2.9.3 1.2.2 1.2-.4 2 .1 2.6 1.1.4.7.8 1.3 1.6.9.9-.4.5-1.2.2-1.8-.1-.2-.1-.4-.1-.7.1-.1.2-.2.3-.2.3.3.6.6.8 1 .3.7.8 1 1.6.9.4-.1.9.1 1.4.1.2 0 .5.2.6.1 1.1-.8 2-.2 3.1.2.3.1.9-.2 1.3-.4 1-.4 1.9-.9 2.9-1.4.2-.1.5-.2.8-.3.8-.6 1.5-.5 2.2.2.6.5 1.4.8 2.1 1 .7.2 1.1-.2.8-1-.2-.6-.3-1.1-.5-1.7.1-.1.2-.1.3-.2.6.6 1.2 1.1 1.7 1.8 1 1.2 1.9 1.3 3.2.5.3-.2 1.1-.1 1.4.1 1 .7 1.8 1.7 2.9.2.1-.1.6-.1.7 0 .9.7 1.8.4 2.7 0 .5-.2 1.2 0 1.6.2 1 .6 1.9.8 3.1.5 1.1-.3 2.4-.2 3.6-.3.4 0 .9-.2 1.2-.4 1-.5 1.9-1.3 3.1-.6.7.4 1.3-.1 1.6-.8.2-.3.5-.8.7-.8.3 0 .7.4.9.7.5.8 1.1.9 1.9.3l.3-.3c1.4-1.4 1.6-1.3 2.6.3.1.2.2.5.4.6.2.2.5.4.7.3.2 0 .4-.4.4-.6.4-1.7.3-1.7 2-.9.3.1.6.2.9.2.8-.1 1.5-.4 2.4.1.2.1.9-.6 1.7-1.2.7 0 1.6.3 2.4 1.2.2.3 1.1.4 1.5.2.7-.3.9-1 .5-1.7-.6-1.2-.5-1.3.9-1.3.4 0 .8.1 1.2 0 1-.1 1.8 0 2 1.2.1.5 1 1.3 1.3 1.2.7-.2 1.3-.9 1.9-1.4.3-.3.4-.7.8-1 .2-.1.6 0 .9 0 0 .3 0 .5-.1.7-.4.7-.2 1.2.4 1.8.7.6 1.3 1.3 2 2 .4-.9.8-.8 1.7-.8 2.3.1 4.5.8 6.8 1.1.4 0 .8.1 1.2.2 1.9.7 3.2-.4 3-2.5 0-.3-.1-.7.1-.9.3-.4.7-.7 1-1.1.1.4.4.8.4 1.2.1 1.4 1.5 2.5 3 2.1 1.3-.4 2.3-.1 3.3.8.5.5 1.2.7 1.9.9.2.1.6-.2.8-.4.2-.3.3-.7.6-1 .8-1.1 1.2-1.1 2.1-.1 1 1.1 2.1.9 2.6-.5.2-.7.5-1.1 1.3-.6 1.6 1 2.5.8 3.6-.7.5-.7.8-.6 1.4-.2.5.3 1.1.6 1.8.7.8.2 1.5.1 1.5-1.1 0-.3.3-.5.5-.8.1.2.4.5.4.7.1.7 0 1.5.3 2.2.2.6.8 1 1.3 1.4.2.1.7-.4 1.1-.6.3-.1.6-.4.9-.4 1.7 0 3.4.1 5.1.3.5 0 1 .3 1.5.4.3.1.6.1.9.2-.1-.3-.1-.6-.2-.9-.1-.4-.2-.9-.1-1.1.5-.6.5-1.2.1-1.9-.1-.2 0-.6 0-.8.3.1.6.1.8.2.3.2.6.5.6.8.3 2 2.1 2.3 3.5 3 1.2.6 2.3 1 3.6.8.5-.1 1.1-.3 1.4-.6.6-.8 1-1.3 2-.5.1.1.4 0 .9-.1-1.1-1-1.9-1.8-3.1-2.8 1-.2 1.6-.5 2.1-.4.3.1.6.6.8 1 .3.5.4 1.4.9 1.6.7.3 1.5.4 2.1-.5.4-.6.8-.3 1.1.2.3.7.6 1.4 1.6.9.7-.3.8-1.5.2-2.3-.2-.2-.3-.5-.5-.7 1.1-.3 2.1-.6 3-.8.2 0 .5.1.6.2.5.7 1.1 1.5 1.5 2.3.4.8 2.2 2 3 1.8.9-.3 1.5 0 2 .7.4.5.9 1.2 1.6.7.4-.3.6-1 .6-1.6.1-.7-.1-1.4-.2-2.3.3.3.5.4.6.5.7.7 1.3 1.4 2 2 .3.2.9.4 1 .2.3-.2.4-.7.5-1.1.1-.6-.1-1.3 0-1.9.1-.3.5-.6.7-.9l.6.9c.4.6.6 1.3 1.2 1.7.7.6 1.6 0 1.6-1 0-.5-.2-.9-.4-1.7h4.6c.2 0 .5.4.4.5-.1.3-.4.5-.6.6-.2.1-.4-.1-.7-.1-.7-.2-1.5-.2-1.5.6 0 .6.6 1.3 1 1.8.1.1.9-.4 1.4-.7.4-.3.7-.7 1-1 .3-.3.5-.7.8-.9.3-.3.7-.7 1.1-.8.3-.1.6.1 1 .1-.1.3-.1.6-.3.9-.1.3-.3.6-.4.8-.7 1.4-.4 1.1.9 1.7 1.3.6 2.9-.1 4 1.2.6.7 1.4.3 1.7-.6.1-.3.4-.6.6-.9.3.3.6.6.8.9.3.7.8.9 1.4.6.6-.3 1.3-.4 1.7-.9.4-.5.5-1.2.7-1.9.1-.3-.1-.7-.3-1.4.9.4 1.5.7 2 1.1.2.2 0 .8 0 1.2 0 .4-.1.9.1 1.2.1.2.8.3 1.1.1 1.6-1 2.8 0 4 .7 1.3.7 1.3.8 1.9-.6.1-.2.3-.4.3-.4 1.1.2 1.4-.7 2-1.3.2-.2.9-.2 1.1-.1.9.5 1.7.9 2.7.6 1.1-.3 1.9.3 2.6 1 1.2 1.3 1.2 1.4 2.7.5.1-.1.3-.1.4-.2 1.4-.6 3.1-.4 3.9-2.2.1.1.2.1.3.2v1c0 .4 0 .8.1 1.1.5 1.1 0 1.8-1.1 2.2-1.5.7-2.9.9-4.5.2-.3-.2-.9.2-1.4.2-1.5.1-3.1 0-4.5.5-.2.1-.5-.2-.7-.4-.6-.6-1.1-.5-1.7 0-.5.5-.8.3-1.3 0s-1.4-.3-1.9-.1c-.6.2-.9.4-1.5.1-.7-.5-1.2-.2-1.6.6-.6 1-1.1 1.1-2 .3-.6-.6-1.1-1.2-1.8-1.9-.3.6-.5.9-.8 1.5-1-1.1-1.8-.8-2.9-.1-1 .6-2.3.6-3.6.8-.2 0-.5-.3-.6-.6-.5-.9-1.3-1.2-2-.4-.6.7-1.1.6-1.8.1-.7-.6-2.6-.5-3.4 0-.9.7-1.8.6-2.9.2-1.1-.4-2.3-.5-3.5-.7-.2 0-.5.2-.6.3-.6.9-1.2.9-1.7-.1-.5-.8-1.1-.7-1.9-.3-.5.2-1.1.2-1.6.3-1.6.4-3.2-.5-4.8.7-.6.4-1.8.1-2.7.1-.4 0-.7-.2-1.1-.2-1 0-2 .7-2 1.5s1.2 1.9 2.1 1.8c.9-.1 1.8-.5 2.8-.7.5 1.2 1.3 1 2.5.5.7-.3 1.9.4 2.8.7 0 .2-.1.4-.1.6-.8.1-1.7.1-2.5.2-.9.1-1.7.2-2.6.3h-2.8c-1.5 0-2.9-.1-4.4-.2-.4 0-.8-.2-1.1-.4-.3-.2-.5-.6-.8-.9.4-.1.7-.2 1.1-.3.5-.2 1.3-.2 1.5-.6.2-.3.1-1.1-.2-1.5-.6-.7-1.4-1.4-2.2-1.8-1-.5-1.3.3-1.5 1.2-.5-.2-.9-.6-1.4-.6-.9-.1-1.8-.1-2.7.1-.9.2-1.7.3-2.7-.1-.6-.2-1.5.2-2.3.4-.4-.8-1.1-1-2.1-.4-.3.2-1 .1-1.3-.1-2.1-1.3-4.4-.8-5.8 1.3 0 .1-.1.1-.1.1-2-.9-3.9-1.9-5.9-2.8-.1.2-.2.3-.4.5.3.2.7.3 1 .5v.4c-.4.1-.8.3-1.2.2-.4 0-.8-.2-1.1-.4-.9-.5-1.5-.5-1.7.3-2.1.1-4 .2-5.9.2-.5 0-1.1-.3-1.6-.4-.4-.1-.8-.3-1.1-.1-1.6.7-3.1 1.1-4.6-.4-.2-.2-.9-.2-1.1 0-1.4 1.1-2.1 1-3.8.4-1.2-.5-2.5-1.6-4-.4-.3.2-1.1-.1-1.6-.3-.5-.2-.9-.6-1.4-.9-.7-.5-1.2-.6-1.6.4-.3.8-1.1 1-1.7.3-.7-.7-1.4-.8-2.2-.2-.3.2-.7.2-1.1.2-.3 0-.7-.1-.9.1-1.3.8-2.7.3-3.9-.1-.7-.2-1.1-.3-1.7.1-.8.5-1.9.7-2.8.7-1 0-2-.4-3-.6-.3 0-.7.1-.9.3-.4.7-1.2 1.2-.7 2.2.3.5.5 1.1.9 1.5.2.2.7.5 1 .4.7-.1 1.4-.4 2.1-.6.8-.2 1.6-.2 2 .8-1.7-.2-3.1 1.1-5 .6-2.3-.7-4.5-.2-6.5 1.3-.5.4-1 .7-1.6.8-.4.1-.8-.4-1.2-.7-.4-.4-.6-1-1.1-1.4-.5-.4-1.1-.4-1.5.3-.6 1.3-1.4 1.4-2.3.3-.1-.1-.2-.1-.6-.5-.3.5-.6 1.1-1 1.4-.6.4-1.3.5-2.1 0-.6-.3-1.4-.2-1.6-1.2-.1-.3-.9-.6-1.3-.5-.5 0-1 .4-1.3.7-.2.2-.3.7-.4 1.2-.4-.2-.7-.3-.9-.5-.7-.7-1.4-1.2-2.4-.6-.2.1-.6.1-.8 0-.8-.5-1.5-.6-1.7 1-.3-1.7-1.4-1.8-2.5-1.9-.3 0-.7-.1-.9-.3-.3-.2-.4-.6-.6-.9.3-.1.6-.3.9-.4.4-.1.8-.2 1.1-.2.3-.1.8-.3 1-.1 1.1 1 2.1.2 3.2.1 1.2-.2 2.3-.5 3.5.3.9.6 2.1.7 3.2-.1.4-.3.9-.4 1.4-.5 1.5-.2 3-.2 4.5-.3H225.5s-.1.4-.2.9c.5-.2.9-.4 1.2-.3.5.1 1.1.2 1.3.6.6 1 1.2 1.2 2.1.3.6-.7 1.1-1.2 2.1-.6.1.1.5-.1.5-.2 0-.3.1-.7-.1-1-.9-1.4-3.1-2.1-4.8-1.6-1.7.5-3.5.3-5.2.2-.2 0-.4-.1-.4-.2-.6-1-1.3-.9-2.2-.3-.2.1-.5 0-.8 0-.6-.1-1.2-.1-1.9-.2-.5 0-1 .1-1.4-.1-1.7-.8-1.7-.8-2.4.6-1-.1-1.9-.2-2.8-.4-.3-.1-.5-.3-.8-.4-.3-.1-.6-.4-.8-.4-.9-.1-1.9-.3-2.7 0-1.5.6-2.8-.1-4.2-.2-1.8-.2-3.4.2-5.2.6-1.1.3-2.3.1-3.5-.2-1.3-.3-2.6-.7-3.9.2-.1.1-.3.2-.5.2-1.2.1-2.3.1-3.5.2-.6.1-1.1.3-1.6.5-.2.1-.5.2-.8.1-.8-.2-1.7-.5-2.4-.8-1-.4-1.7-.1-2.7.3-.9.3-2.2-.2-3.3-.5-.4-.1-.8-.5-1.1-.9-.7-.6-1.2-.6-2 0-.6.4-1.5.5-2.3.6-1.2.2-2.4.8-3.6.3-.2-.1-.5.2-.7.4-1.7 1.2-2.7 1.1-4.1-.4-.5-.6-1-.6-1.6 0-.3.3-.8.3-1.2.4-.2.1-.5-.1-.7 0-1.1.9-2.3.3-3.4.1-.3-.1-.8 0-1.1.2-.6.5-1.2.4-1.9.1-.6-.2-1.4-.1-2-.1-.2 0-.5.2-.7.1-1.8-.2-3.5-.4-5.3-.5-.6 0-1.3.2-2 .3h-.9c-.2 0-.6-.2-.7-.1-1.5 1.2-3.3.1-4.9.6-.4.1-1-.3-1.5-.5-1.3-.9-1.5-.8-2.7.1-.5.4-1.4.3-2.1.6-.9.5-1.3.1-1.8-.5-.6-.7-1.3-.6-2 0-.4.3-.9.6-1.4.9-.3-1.8-1.6-1.2-2.5-1-.8.2-1.6.6-2.4 1-.2.1-.6.2-.8.1-1.5-.9-3.1-.6-4.8-.6-.9 0-1.8-.4-2.7-.5-.5-.1-1.1-.2-1.5 0-1.7.9-3.6.5-5.4.7-.5.1-1.1-.3-1.5-.6-.6-.5-1.1-.6-1.8-.2-.7.4-1.1 0-1.3-.6-.2-.5-.2-1-.1-1.5.1-1.1.6-1.3 1.5-.7 1.2.9 1.4.8 2.3-.4.3-.4.9-.6 1.4-.8.4-.2 1-.1 1.4-.2.6-.2 1-.3 1.5.3.4.4 1.4.3 2.1.5 1 .2 1.4-.3 1.6-1.2.2-.8.8-.7 1.3-.4.3.2.5.6.9.8.4.2 1.2.5 1.4.3.4-.3.5-1 .6-1.6.1-.4.1-.7.1-1.2.4.6.7 1.1.9 1.5.4-.4.8-.7 1.2-1.1-.1-.1-.1-.3-.2-.4.8-.1 1.6-.2 2.5-.3.1.1.2.3.2.4-.4.3-.7.5-1.1.8-.6.5-.7 1.2-.1 1.6.5.4 1.2.5 1.9.6.1 0 .4-.5.4-.8.2-1 .5-1.1 1.3-.6l1.5.9c1.3.6 2.1.1 2.1-1.3V5.3c.8.6 1.5 1 2.1 1.5.7.5 1.3 1.1 2 1.6.9.7 1.4.4 1.6-.7.1-.4.4-.7.6-1 .3.3.8.5 1 .8.7 1.4 1.3 1.5 2.5.5.3-.3 1.1-.4 1.5-.2 1 .4 1.9.7 2.8-.3.1-.2.7-.1.9 0 1 .5 1.9 1.1 2.9 1.7.6.4 1.1.3 1.1-.4-.1-1 .6-1.4 1.2-1.7.8-.4 1.8-.2 2.7-.5 1.4-.5 1.5.6 2 1.3 1.5 1.9 1.8 1.8 2.6.3zm83.2 6.2c-.5-.5-.9-1-1.3-1.3-.1 0-.8.6-.8.8.2.6.6 1.2 1 1.8.2-.4.6-.8 1.1-1.3zm79-7.9h-.5c-.2.5-.5.9-.6 1.4 0 .3.4.6.6.9.3-.5.8-.9 1-1.4.2-.2-.2-.6-.5-.9zM17 6.9c1.2.5 2.6 1.1 4 1.6.1.1.4-.3.7-.4-.4-.5-.7-1-1.3-1.7.5.1.7 0 .8.1.8 1.2 2.1 1.5 3.3 1.9 1.7.6 3.5.9 5.3 1 .6 0 1.3-.9 1.9-1.3-.2-.6-.3-1.1-.4-1.6.2-.1.4-.2.5-.3.4.7 1 1.3 1.1 2 .2.9.6 1.3 1.4 1.1.9-.1 1.4.3 1.9.9.4.4 1 .6 1.5.9.2-.5.5-.9.5-1.4.1-1 .4-1.2 1.3-.8.2.1.4.2.5.3.9 1.1 1.5.9 1.8-.4 1.2.4 2.5.5 3.2 1.7.2.4 1.2.5 1.9.5.9 0 1.9-.3 2.9-.5-.2-.4-.4-.8-.6-1.3.1 0 .1-.1.2-.1l1.2 1.2c.8.9 1.2.9 2.1.2.4-.3 1-.4 1.5-.6.2.6.5 1.2.6 1.8 0 .1-.5.4-.8.5-.6.2-1.2.3-1.8.4-.3 0-.6.1-.8-.1-1.4-1.2-2.7-.2-3.9.2-.7.2-1.1.3-1.6-.1-1-.9-2.2-1.2-3.5-1.1-.3 0-.7-.1-.8.1-1.4 1.3-3 .5-4.6.5-.7 0-1.6.3-2.2.7-.6.5-1.1.4-1.8.3-.7-.1-1.4 0-2.1-.1-.5-.1-1.1-.2-1.6-.3-.4-.1-.9-.2-1.3-.1-.7.1-1.3.5-2 .5-1.8 0-3.6-.3-5.4-.1-1.1.1-2 0-3-.5-.6-.3-1.6.2-2.3-.1-1.7-.6-3.4-1.1-5.3-1h-.1l-1.3-1.3c.6-.2 1.2-.5 1.8-.4 1 .1 2.1.4 3.1.5.3 0 .8-.1 1-.4.1-.1.1-.7 0-.8-.3-.2-.7-.2-1-.1-1.1.4-1.2-.7-1.6-1.2.3-.3.6-.5.9-.8l1.1-1.1c.4-.4.8-.9 1.3-1 .3-.1.8.5 1 .8-.7.6-1.2 1-1.8 1.4.4.5.8 1 .9 1 .6-.3 1.1-.7 1.7-1.1zM59.4 11.5c.9-.7 1.8-1.5 2.7-2.2.1-.1.5 0 .6.1.1.1 0 .4 0 .6-.1.3-.2.5-.4.8h1.8c.3-.1.8-.1 1-.4.7-.8 1.1-.7 1.5.2 0 .1 0 .2.1.2.3.7.8 1.2 1.5.8.3-.2.1-1 .1-1.5 0-.2-.2-.3-.1-.7.6.3 1.3.6 1.7 1.1.8 1.1 1.9.8 2.6.2.7-.5 1.2-.6 2-.5.7.1 1.1-.2 1-.9 0-.2 0-.5.1-.6.4-.4.9-.8 1.4-1.2.1.4.4.9.4 1.3.1 1.8.7 2.1 2.3 1.3.7-.4 1.5-.7 2.2-.8.4-.1 1 .2 1.4.5 1.8 1.6 2.4 1.5 3.7-.4.1-.1.2-.2.5-.4.3.6.6 1.1.8 1.6.6 1.1 1.3 1.2 2.2.6 1.4-.9 4.1-.6 5.2.6.2.2.2.8 0 .9-.2.2-.9.3-1 .2-1.5-1.6-2.8-.2-4.2.2-.5.2-1.1.1-1.6.2-.5 0-1.1-.1-1.6.1-.8.4-1.5.3-2.3 0-.5-.2-1.1-.2-1.6 0-1.2.5-2.4.6-3.4-.4-.6-.6-1.2-.4-1.9.1-.6.4-1.4.6-2.1.9-1.9.6-3.7-.6-5.6-.2-.5.1-1 .2-1.3.4-.6.5-1 .5-1.5-.1-.7-.9-1.6-1-2.6-.5-.2.1-.3.2-.5.3-.8-.1-4.4-1.5-5.1-2.4z"/><path class="st1" d="M266 15.5c1.3 1.3 3 .9 4.6 1 1.1.1 2.3 0 3.5.1.2 0 .6.1.7 0 1.8-1.5 4.2.4 6.1-1 .2-.1.7.2 1.1.4 1.1.5 2.1 1.3 3.4.7.2-.1.4.1.7.1.6 0 1.2-.1 1.8-.2.6 0 1.2-.1 1.8-.1 1 .1 2 .4 3 .5.5.1 1 0 1.5 0 1.4.2 1.4.2.7 1.4-.2.4-.1.9-.2 1.5h-2.9c.2-.5.3-.8.6-1.5-2.3.1-4.5-.9-6.7 0-.2.1-.4.4-.5.6-.5 1.1-.5 1.1-1.8.7.2-.5.4-1 .7-1.6-1.2-.2-1.7.5-2.3 1.2-.8 1.1-1.1 1.1-1.7-.1-.9-1.7-1.6-1.7-3.2 0-.6-.9-1.3-1-2.1-.2-.2.2-.6.1-.9.2-.3.1-.6.1-.8.2-.3.1-.7.5-.8.4-.3-.2-.4-.6-.6-1-.2-.4-.2-.7-.4-1.1-.4.2-.9.3-1.1.7-.7 1.1-1.6 1-2.6.7-.8-.2-1.6-.5-2.3-.8-.4-.2-.8-.5-.9-.8-.1-.3.3-.7.6-1 .1-.3.5-.6 1-1zM39.9 19c-.8.4-1.3.5-1.7-.4-.1-.2-.6-.3-.9-.5-.1 0-.4.1-.4 0-1.1-1-2.3-.4-3.5-.3-.9.1-1.8.4-2.8-.1-.4-.2-1.3.5-2 .8-.7-1.6-2-1.1-3.4-.4-.3.2-.9.2-1.1 0-1.1-1.1-2.5-.6-3.8-.6-.2 0-.5 0-.7-.1-1.3-.9-1.3-.9-1.9.9-.4-.4-.8-.6-1-1-.5-.9-1.1-1-1.8-.3l-.2.2c-1.8 1.5-2.1 1.4-2.9-.8-.1-.2 0-.4.1-.5.3-.5 2.3-1.1 2.9-.8.8.4 1.7 1.1 2.5 1 1.2-.2 2.5.2 3.6-.1 1-.2 1.9-1.1 2.9-1.6.3-.1.7 0 1 .2.6.2 1.1.5 1.6.7.9.4 1.7.7 2.6 1.1.9.4 1.9.7 2.9.1.2-.1.5-.1.7 0 1.2.8 2.1.2 3-.6.6-.6 1.1-.8 1.8-.1.3.3 1 .3 1.2.7.4.8.8 1.6 1.3 2.5zM194.6 16.9c-1.9.2-3.7.4-5.6.6-1.1.1-2.2.3-3.2.3-1.6 0-3.2-.1-4.7-.2-.2 0-.3 0-.5-.1-1-.7-2-1.1-3.2-.2-.2.1-.9-.2-1.2-.5-.1-.1 0-.7.1-.8.4-.2.9-.4 1.3-.3 1.6.5 3.2.1 4.8-.2.4-.1 1 0 1.3.3.7.7 1.4.8 2.2.3.4-.2.9-.1 1.4-.1.2 0 .5.2.7.2 1.3-.8 2.6-.4 3.8.2.3.1.8-.2 1.2-.1.6 0 1.2.2 1.8.2-.2.1-.2.3-.2.4zM169.5 16.6c-.8.4-1.4.9-2 .8-1.1-.1-2.2.8-3.3-.2-.2-.2-1.2.5-2 .9 0 0-.2-.1-.4-.3-.5-.4-1.1-.5-1.4.2-.6 1.2-1.4.8-2.1.3-1.1-.9-2.1-1.1-3.4-.2-.7.5-1.3.1-1.5-.6-.1-.3.5-1.1.8-1.1 1.5-.2 3-.2 4.5-.2 1.3-.1 2.7-.2 4-.2.4 0 1-.2 1.2 0 .9.9 1.6.5 2.5.1.9-.7 1.9-.4 3.1.5zM133.4 17.5c1.1-1.3 2.8-1.8 4.2-1.1.8.4 1.4.5 2.1-.2.1-.1.4-.3.6-.3 2.5.1 5 .2 7.5.2.8 0 1.5-.1 2.3 0 .4 0 .8.4 1.1.6-.3.3-.7.7-1 .7-1.7 0-3.4 0-5.1-.2-.8-.1-1.2-.1-1.7.6-.9 1.3-1.6 1.3-2.5 0-.5-.6-.9-.6-1.6-.5-2 .3-3.9.2-5.9.2zM111.5 17.1c1.4-.8 2.8-1.2 4.2-.4 1.2.7 2-.6 3-.7.5 0 .9-.2 1.4-.2.5-.1 1.1 0 1.6-.1 1.4-.4 2.4.5 3.4.9-1.2.6-2.3 1.2-3.5 1.7-.5.2-1.2.1-1.6-.1-1.3-1-2.6-.5-4-.3-.5.1-1 0-1.4.1-.5 0-1.1-.2-1.6 0-.9.4-1.2 0-1.5-.9zM340.7 17.2c.6-.2 1.1-.4 1.7-.5 1.3-.2 2.7-.4 4-.3 1.5.1 3 .4 4.6.7.7.1 1.4.1 2.1.2.2.1.4.5.6.7-.9.6-1.7 1.2-2.6 1.9-.1-.8-.2-1.5-.3-2.1-.6.2-1.2.5-1.9.6-2 .1-4 .2-6 .1-.7 0-1.4-.6-2.1-.9-.1-.1-.1-.3-.1-.4zM67.6 16.7c1.4.2 2.6.4 3.8.5.5.1 1.1.2 1.5 0 1.4-.7 2.8-.5 4.3-.2.3.1.6.4.9.6-.3.2-.6.5-.9.5-1.4.1-2.8.2-4.3.2h-4.2c-.5 0-1.1.2-1.5.5-.5.3-.8.7-1.3 0-.4-.6-.6-1.2.2-1.6.5-.3 1.1-.3 1.5-.5zM104.1 16.5c.3 0 .7.1.9-.1 1.6-.9 3.3.1 4.9 0 .3 0 .6.3.8.5-.2.2-.5.6-.7.6-1.4 0-2.7.3-3.7 1.3-.1.1-.6 0-.8-.1-1.3-1-2.7-1.6-4.3-.6-.1.1-.7-.3-.7-.4.1-.3.3-.8.5-.9 1-.2 2-.3 3.1-.4v.1zM81 18.5c-.5-1.2-.3-1.6.7-1.7 1.8-.1 3.6-.1 5.3 0 .4 0 .8.5 1.2.7-.4.2-.7.4-1.1.5-.8.4-1.6.6-2.3 1.1-.6.4-1.2.4-1.5-.2-.6-.9-1.3-1-2.3-.4zM369 17.6c-.5 1-1.4 1.3-2.2.6-.6-.5-1-.4-1.6 0-.9.6-3.6.4-4.3-.3 1.1-1.1 6.1-1.3 8.1-.3zM6.6 17c-.6-.1-1.3-.3-2-.5.5-.5.9-1 1.4-1.5.6-.6 3.4 0 3.6.9.1.2-.2.7-.4.8-.8.1-1.6.2-2.6.3zM299.9 19.1c0-1.7 0-1.7-1.6-.9-.3.1-.7.1-1 .2-.1-.1-.1-.2-.2-.4.5-.3 1.1-.7 1.6-1.1.7-.6 1.1.1 1.7.3.3.1.8.1.9 0 .7-.9 1.4-.4 2.4 0-.6.7-.9 1.5-1.5 1.8-.6.3-1.5.1-2.3.1zM131.4 18.1c-1.2-.2-2.3-.4-3.4-.7-.3-.1-.4-.5-.6-.8.3-.2.6-.6.9-.6 1 0 2 .2 2.9.2.8 0 1.2.4 1.2 1.1.1.3-.5.5-1 .8zM57.3 18c.8-1 2-1.1 3-1.1.6 0 1.3.1 1.9.2.3.1.5.4.8.6-.2.2-.4.4-.7.5-.2.1-.6.1-.8.2-.7.3-1.2 1.2-2.1.6-.6-.4-1.3-.7-2.1-1zM198.6 18c-.3-.2-.7-.7-1.2-.8-.5-.2-1-.1-1.8-.2 1-1 6.4-.8 7.6 0-.8.2-1.6.3-2.3.5-.9.2-1.6.3-2.3.5zM56.5 17.3c-1.6 1.8-3.2 1.7-3.8 0h3.8zM261.4 18.1c-.6-.5-1.1-.8-1.5-1.2.5-.4.9-.8 1.4-1.2.4.5.8.9 1.1 1.4.1.1-.5.5-1 1zM385 6c1-.3 1.7-.6 2.4-.7.4 0 .9.2 1.3.5.3.2.3.8.3.9-1.2-.1-2.1-.2-3-.1-.7 0-1-.2-1-.6zM248.2 16.9c-.4.2-.8.7-1.2.6-.6-.1-1.1-.5-1.6-.8.2-.2.5-.6.7-.6.6 0 1.3.3 1.9.4.1.1.1.3.2.4zM377.8 17.9c-.2 1.2-.7 1.6-1.5 1.4-.3-.1-.4-.7-.6-1.1.6-.2 1.3-.2 2.1-.3zM251.6 17.2c1.2-.1 2.3-.2 3.4-.3-.8 1.4-2.1 1.5-3.4.3zM382 17.8c-.7.8-2.3.6-2.7-.2-.1-.1 0-.5 0-.5.3-.1.6-.2.9-.1.6.2 1.2.5 1.8.8 0 .1 0 0 0 0zM57.8 9.5c.4.5.8 1 1 1.5.1.2-.3.5-.5.8-.2-.2-.6-.4-.7-.6-.1-.5-.1-1-.2-1.5.2 0 .3-.1.4-.2zM309.5 18.1h-2.9c.8-1 1.9-1.1 2.9 0zM256.5 17c.6.2 1.3.5 1.9.8.1.1.1.6 0 .7-.2.1-.6.2-.8.1-.5-.3-.9-.8-1.3-1.2.1-.2.1-.3.2-.4zM43.4 17.4c-.3.8-.9 1.1-1.7.8-.2-.1-.4-.5-.3-.6.5-.6 1.2-.6 2-.2zM48.7 17.1c.5.2 1 .3 1.4.5-.2.3-.5.7-.7 1-.4-.3-.7-.6-1.1-.9.2-.2.3-.4.4-.6zM129.1 6.2c.6-1.3 1-1.2 2.3.2-.9 0-1.5-.1-2.3-.2zM160.4 5.4c.7.1 1.5.2 2.2.3 0 .2 0 .3-.1.5-.7-.1-1.5-.1-2.2-.2.1-.2.1-.4.1-.6zM224.3 5.2c.8.1 1.7-.8 2.8.3h-2.8v-.3zM365 6.3c-.5.4-.8.8-1 .7-.3-.1-.5-.5-.8-.8.2-.2.4-.5.6-.5.3.1.6.4 1.2.6zM280.2 6.3c-.3-.4-.6-.6-.7-.9 0-.1.4-.5.5-.4.3.1.5.4.7.6 0 .1-.3.4-.5.7z"/></g></g></svg>